<svg width="205" height="187" viewBox="0 0 205 187" fill="none" xmlns="http://www.w3.org/2000/svg">
<g filter="url(#filter0_dd_1_222)">
<rect x="7.7002" y="5" width="189.7" height="171.5" rx="8.4" fill="white" shape-rendering="crispEdges"/>
<rect x="169.4" y="19" width="14" height="14" rx="4.2" fill="#0071E3"/>
<path d="M175.664 29.3279C175.97 29.3279 176.2 29.2108 176.356 28.9765L179.736 23.8839C179.792 23.8009 179.833 23.7191 179.86 23.6386C179.887 23.5556 179.9 23.4763 179.9 23.4006C179.9 23.1907 179.827 23.0174 179.681 22.8807C179.537 22.7416 179.358 22.6721 179.146 22.6721C179 22.6721 178.875 22.7013 178.773 22.7599C178.673 22.8161 178.577 22.9137 178.487 23.0528L175.65 27.5084L174.229 25.8059C174.076 25.6278 173.883 25.5387 173.651 25.5387C173.434 25.5387 173.254 25.6083 173.113 25.7474C172.971 25.8865 172.9 26.061 172.9 26.2709C172.9 26.3661 172.915 26.4564 172.944 26.5418C172.976 26.6248 173.033 26.7115 173.116 26.8018L175.002 29.024C175.175 29.2266 175.396 29.3279 175.664 29.3279Z" fill="white"/>
<rect x="21.7003" y="142.9" width="66.4" height="19.6" rx="2.8" fill="#E5E5E6" fill-opacity="0.5"/>
<path d="M28.5792 156.927V148.655H29.1092V156.927H28.5792ZM30.237 151.22C30.2025 150.915 30.0604 150.678 29.8105 150.509C29.5605 150.339 29.246 150.254 28.8668 150.254C28.5954 150.254 28.3606 150.297 28.1624 150.383C27.9642 150.467 27.8101 150.584 27.7003 150.732C27.5925 150.879 27.5387 151.046 27.5387 151.233C27.5387 151.391 27.5753 151.526 27.6486 151.641C27.724 151.755 27.822 151.851 27.9426 151.928C28.0654 152.004 28.1968 152.067 28.3369 152.119C28.4769 152.168 28.6116 152.209 28.7408 152.242L29.3871 152.41C29.5983 152.461 29.8148 152.531 30.0367 152.62C30.2586 152.708 30.4643 152.824 30.6539 152.969C30.8435 153.113 30.9964 153.292 31.1128 153.505C31.2313 153.718 31.2905 153.974 31.2905 154.271C31.2905 154.646 31.1936 154.979 30.9997 155.27C30.8079 155.56 30.5289 155.79 30.1627 155.958C29.7986 156.126 29.358 156.21 28.841 156.21C28.3455 156.21 27.9168 156.131 27.5548 155.974C27.1929 155.817 26.9096 155.594 26.705 155.305C26.5003 155.014 26.3872 154.67 26.3656 154.271H27.3674C27.3868 154.51 27.4644 154.709 27.6001 154.869C27.738 155.026 27.9135 155.144 28.1268 155.221C28.3423 155.296 28.5782 155.334 28.8345 155.334C29.1168 155.334 29.3677 155.29 29.5875 155.202C29.8094 155.111 29.9839 154.986 30.111 154.827C30.2381 154.665 30.3016 154.477 30.3016 154.261C30.3016 154.065 30.2456 153.905 30.1336 153.78C30.0237 153.655 29.874 153.551 29.6844 153.47C29.497 153.388 29.2848 153.316 29.0478 153.253L28.2658 153.04C27.7358 152.895 27.3157 152.683 27.0055 152.403C26.6974 152.123 26.5434 151.753 26.5434 151.292C26.5434 150.91 26.6468 150.577 26.8536 150.293C27.0604 150.009 27.3405 149.788 27.6938 149.631C28.0471 149.471 28.4457 149.391 28.8895 149.391C29.3376 149.391 29.7329 149.47 30.0754 149.627C30.4201 149.785 30.6916 150.001 30.8898 150.277C31.088 150.55 31.1914 150.865 31.2 151.22H30.237ZM34.9042 149.482V156.1H33.9024V150.484H33.8636L32.2802 151.518V150.561L33.9315 149.482H34.9042ZM37.5823 155.195L37.5338 155.547C37.5015 155.806 37.4466 156.075 37.369 156.355C37.2936 156.638 37.215 156.899 37.1331 157.141C37.0534 157.382 36.9877 157.574 36.936 157.716H36.2509C36.2789 157.582 36.3177 157.401 36.3672 157.173C36.4168 156.947 36.4653 156.694 36.5127 156.413C36.5601 156.133 36.5956 155.848 36.6193 155.557L36.6516 155.195H37.5823ZM40.998 156.21C40.4874 156.208 40.0512 156.073 39.6893 155.806C39.3273 155.539 39.0505 155.15 38.8587 154.639C38.667 154.129 38.5711 153.514 38.5711 152.794C38.5711 152.077 38.667 151.464 38.8587 150.955C39.0526 150.447 39.3306 150.059 39.6925 149.792C40.0566 149.525 40.4918 149.391 40.998 149.391C41.5043 149.391 41.9384 149.526 42.3003 149.795C42.6623 150.062 42.9391 150.45 43.1308 150.959C43.3247 151.465 43.4217 152.077 43.4217 152.794C43.4217 153.516 43.3258 154.132 43.1341 154.643C42.9423 155.151 42.6655 155.54 42.3036 155.809C41.9416 156.076 41.5065 156.21 40.998 156.21ZM40.998 155.347C41.4461 155.347 41.7962 155.128 42.0483 154.691C42.3025 154.254 42.4296 153.621 42.4296 152.794C42.4296 152.245 42.3714 151.781 42.2551 151.401C42.1409 151.02 41.9761 150.731 41.7607 150.535C41.5474 150.337 41.2932 150.238 40.998 150.238C40.5521 150.238 40.202 150.458 39.9478 150.897C39.6936 151.337 39.5654 151.969 39.5632 152.794C39.5632 153.346 39.6203 153.812 39.7345 154.193C39.8508 154.573 40.0156 154.86 40.2289 155.056C40.4422 155.25 40.6986 155.347 40.998 155.347ZM46.8721 156.21C46.3616 156.208 45.9253 156.073 45.5634 155.806C45.2014 155.539 44.9246 155.15 44.7329 154.639C44.5411 154.129 44.4453 153.514 44.4453 152.794C44.4453 152.077 44.5411 151.464 44.7329 150.955C44.9268 150.447 45.2047 150.059 45.5666 149.792C45.9307 149.525 46.3659 149.391 46.8721 149.391C47.3784 149.391 47.8125 149.526 48.1745 149.795C48.5364 150.062 48.8132 150.45 49.005 150.959C49.1989 151.465 49.2958 152.077 49.2958 152.794C49.2958 153.516 49.1999 154.132 49.0082 154.643C48.8165 155.151 48.5396 155.54 48.1777 155.809C47.8158 156.076 47.3806 156.21 46.8721 156.21ZM46.8721 155.347C47.3203 155.347 47.6703 155.128 47.9224 154.691C48.1766 154.254 48.3037 153.621 48.3037 152.794C48.3037 152.245 48.2455 151.781 48.1292 151.401C48.015 151.02 47.8502 150.731 47.6348 150.535C47.4215 150.337 47.1673 150.238 46.8721 150.238C46.4262 150.238 46.0761 150.458 45.8219 150.897C45.5677 151.337 45.4395 151.969 45.4373 152.794C45.4373 153.346 45.4944 153.812 45.6086 154.193C45.725 154.573 45.8898 154.86 46.103 155.056C46.3163 155.25 46.5727 155.347 46.8721 155.347ZM52.7463 156.21C52.2357 156.208 51.7994 156.073 51.4375 155.806C51.0756 155.539 50.7987 155.15 50.607 154.639C50.4153 154.129 50.3194 153.514 50.3194 152.794C50.3194 152.077 50.4153 151.464 50.607 150.955C50.8009 150.447 51.0788 150.059 51.4407 149.792C51.8048 149.525 52.24 149.391 52.7463 149.391C53.2525 149.391 53.6866 149.526 54.0486 149.795C54.4105 150.062 54.6873 150.45 54.8791 150.959C55.073 151.465 55.1699 152.077 55.1699 152.794C55.1699 153.516 55.074 154.132 54.8823 154.643C54.6906 155.151 54.4137 155.54 54.0518 155.809C53.6899 156.076 53.2547 156.21 52.7463 156.21ZM52.7463 155.347C53.1944 155.347 53.5445 155.128 53.7965 154.691C54.0507 154.254 54.1778 153.621 54.1778 152.794C54.1778 152.245 54.1197 151.781 54.0033 151.401C53.8892 151.02 53.7243 150.731 53.5089 150.535C53.2956 150.337 53.0414 150.238 52.7463 150.238C52.3003 150.238 51.9502 150.458 51.696 150.897C51.4418 151.337 51.3136 151.969 51.3115 152.794C51.3115 153.346 51.3686 153.812 51.4827 154.193C51.5991 154.573 51.7639 154.86 51.9772 155.056C52.1904 155.25 52.4468 155.347 52.7463 155.347ZM56.7259 156.161C56.5492 156.161 56.3974 156.099 56.2703 155.974C56.1431 155.847 56.0796 155.694 56.0796 155.515C56.0796 155.338 56.1431 155.188 56.2703 155.063C56.3974 154.936 56.5492 154.872 56.7259 154.872C56.9026 154.872 57.0544 154.936 57.1815 155.063C57.3087 155.188 57.3722 155.338 57.3722 155.515C57.3722 155.634 57.342 155.742 57.2817 155.842C57.2236 155.938 57.146 156.016 57.0491 156.074C56.9521 156.132 56.8444 156.161 56.7259 156.161ZM60.7177 156.21C60.2071 156.208 59.7708 156.073 59.4089 155.806C59.0469 155.539 58.7701 155.15 58.5784 154.639C58.3866 154.129 58.2908 153.514 58.2908 152.794C58.2908 152.077 58.3866 151.464 58.5784 150.955C58.7723 150.447 59.0502 150.059 59.4121 149.792C59.7762 149.525 60.2114 149.391 60.7177 149.391C61.2239 149.391 61.658 149.526 62.02 149.795C62.3819 150.062 62.6587 150.45 62.8505 150.959C63.0444 151.465 63.1413 152.077 63.1413 152.794C63.1413 153.516 63.0454 154.132 62.8537 154.643C62.662 155.151 62.3851 155.54 62.0232 155.809C61.6613 156.076 61.2261 156.21 60.7177 156.21ZM60.7177 155.347C61.1658 155.347 61.5158 155.128 61.7679 154.691C62.0221 154.254 62.1492 153.621 62.1492 152.794C62.1492 152.245 62.0911 151.781 61.9747 151.401C61.8605 151.02 61.6957 150.731 61.4803 150.535C61.267 150.337 61.0128 150.238 60.7177 150.238C60.2717 150.238 59.9216 150.458 59.6674 150.897C59.4132 151.337 59.285 151.969 59.2829 152.794C59.2829 153.346 59.3399 153.812 59.4541 154.193C59.5705 154.573 59.7353 154.86 59.9485 155.056C60.1618 155.25 60.4182 155.347 60.7177 155.347ZM66.5918 156.21C66.0812 156.208 65.6449 156.073 65.283 155.806C64.9211 155.539 64.6442 155.15 64.4525 154.639C64.2608 154.129 64.1649 153.514 64.1649 152.794C64.1649 152.077 64.2608 151.464 64.4525 150.955C64.6464 150.447 64.9243 150.059 65.2862 149.792C65.6503 149.525 66.0855 149.391 66.5918 149.391C67.098 149.391 67.5321 149.526 67.8941 149.795C68.256 150.062 68.5328 150.45 68.7246 150.959C68.9185 151.465 69.0154 152.077 69.0154 152.794C69.0154 153.516 68.9196 154.132 68.7278 154.643C68.5361 155.151 68.2592 155.54 67.8973 155.809C67.5354 156.076 67.1002 156.21 66.5918 156.21ZM66.5918 155.347C67.0399 155.347 67.39 155.128 67.642 154.691C67.8962 154.254 68.0233 153.621 68.0233 152.794C68.0233 152.245 67.9652 151.781 67.8488 151.401C67.7347 151.02 67.5699 150.731 67.3544 150.535C67.1411 150.337 66.8869 150.238 66.5918 150.238C66.1458 150.238 65.7957 150.458 65.5415 150.897C65.2873 151.337 65.1591 151.969 65.157 152.794C65.157 153.346 65.2141 153.812 65.3282 154.193C65.4446 154.573 65.6094 154.86 65.8227 155.056C66.0359 155.25 66.2923 155.347 66.5918 155.347Z" fill="#313233"/>
<path d="M75.799 151.599L78.1766 153.976C78.2449 154.045 78.3557 154.045 78.4241 153.976L80.8015 151.599C80.9118 151.489 80.8337 151.3 80.6778 151.3H75.9228C75.7669 151.3 75.6888 151.489 75.799 151.599Z" fill="#96979A"/>
<path d="M44.1003 44.9V30.9" stroke="black" stroke-width="1.4" stroke-linecap="round" stroke-linejoin="round"/>
<path d="M35.7003 44.9V22.5" stroke="black" stroke-width="1.4" stroke-linecap="round" stroke-linejoin="round"/>
<path d="M27.3003 44.9V36.5" stroke="black" stroke-width="1.4" stroke-linecap="round" stroke-linejoin="round"/>
</g>
<path d="M29.1696 105.155V113.3H28.0401L23.8997 107.326H23.8242V113.3H22.5952V105.155H23.7327L27.877 111.136H27.9526V105.155H29.1696ZM33.4402 113.423C32.8675 113.423 32.3677 113.292 31.9408 113.03C31.5139 112.767 31.1824 112.4 30.9465 111.928C30.7105 111.456 30.5925 110.904 30.5925 110.273C30.5925 109.64 30.7105 109.085 30.9465 108.611C31.1824 108.136 31.5139 107.768 31.9408 107.505C32.3677 107.243 32.8675 107.111 33.4402 107.111C34.0129 107.111 34.5127 107.243 34.9396 107.505C35.3665 107.768 35.698 108.136 35.934 108.611C36.1699 109.085 36.2879 109.64 36.2879 110.273C36.2879 110.904 36.1699 111.456 35.934 111.928C35.698 112.4 35.3665 112.767 34.9396 113.03C34.5127 113.292 34.0129 113.423 33.4402 113.423ZM33.4442 112.425C33.8154 112.425 34.123 112.327 34.3669 112.131C34.6108 111.934 34.7911 111.673 34.9078 111.347C35.0271 111.021 35.0868 110.662 35.0868 110.269C35.0868 109.88 35.0271 109.522 34.9078 109.195C34.7911 108.867 34.6108 108.603 34.3669 108.404C34.123 108.205 33.8154 108.106 33.4442 108.106C33.0703 108.106 32.7601 108.205 32.5135 108.404C32.2696 108.603 32.0879 108.867 31.9686 109.195C31.8519 109.522 31.7936 109.88 31.7936 110.269C31.7936 110.662 31.8519 111.021 31.9686 111.347C32.0879 111.673 32.2696 111.934 32.5135 112.131C32.7601 112.327 33.0703 112.425 33.4442 112.425ZM40.467 107.191V108.145H37.1301V107.191H40.467ZM38.025 105.727H39.2142V111.506C39.2142 111.737 39.2487 111.911 39.3176 112.027C39.3866 112.141 39.4754 112.219 39.5841 112.262C39.6955 112.302 39.8161 112.322 39.946 112.322C40.0415 112.322 40.125 112.315 40.1966 112.302C40.2682 112.288 40.3239 112.278 40.3636 112.27L40.5784 113.252C40.5095 113.279 40.4114 113.305 40.2841 113.332C40.1568 113.361 39.9977 113.377 39.8068 113.38C39.4939 113.385 39.2023 113.329 38.9318 113.212C38.6614 113.096 38.4426 112.916 38.2756 112.672C38.1085 112.428 38.025 112.121 38.025 111.753V105.727ZM41.7825 113.3V107.191H42.9717V113.3H41.7825ZM42.3831 106.248C42.1763 106.248 41.9986 106.179 41.8501 106.041C41.7043 105.901 41.6314 105.734 41.6314 105.54C41.6314 105.344 41.7043 105.177 41.8501 105.039C41.9986 104.899 42.1763 104.828 42.3831 104.828C42.5899 104.828 42.7662 104.899 42.9121 105.039C43.0606 105.177 43.1348 105.344 43.1348 105.54C43.1348 105.734 43.0606 105.901 42.9121 106.041C42.7662 106.179 42.5899 106.248 42.3831 106.248ZM47.479 107.191V108.145H44.0267V107.191H47.479ZM44.9733 113.3V106.483C44.9733 106.101 45.0568 105.784 45.2239 105.532C45.3909 105.278 45.6123 105.088 45.8881 104.964C46.1638 104.836 46.4634 104.773 46.7869 104.773C47.0256 104.773 47.2297 104.793 47.3994 104.832C47.5691 104.869 47.6951 104.904 47.7773 104.936L47.4989 105.898C47.4432 105.882 47.3716 105.864 47.2841 105.843C47.1966 105.819 47.0905 105.807 46.9659 105.807C46.6769 105.807 46.4701 105.878 46.3455 106.022C46.2235 106.165 46.1625 106.372 46.1625 106.642V113.3H44.9733ZM49.4577 115.591C49.28 115.591 49.1183 115.576 48.9724 115.547C48.8266 115.521 48.7179 115.491 48.6463 115.46L48.9327 114.485C49.1501 114.544 49.3437 114.569 49.5134 114.561C49.6831 114.553 49.8329 114.489 49.9628 114.37C50.0954 114.251 50.212 114.056 50.3128 113.785L50.4599 113.38L48.2247 107.191H49.4974L51.0446 111.932H51.1082L52.6554 107.191H53.9321L51.4145 114.115C51.2978 114.434 51.1493 114.703 50.969 114.923C50.7887 115.145 50.574 115.312 50.3247 115.424C50.0755 115.535 49.7865 115.591 49.4577 115.591ZM58.0138 113.3V107.191H59.1553V108.185H59.2308C59.3581 107.848 59.5662 107.586 59.8553 107.398C60.1443 107.207 60.4903 107.111 60.8933 107.111C61.3017 107.111 61.6437 107.207 61.9195 107.398C62.1979 107.589 62.4034 107.851 62.5359 108.185H62.5996C62.7454 107.859 62.9774 107.599 63.2956 107.406C63.6138 107.209 63.9929 107.111 64.4331 107.111C64.9873 107.111 65.4393 107.285 65.7893 107.632C66.142 107.98 66.3183 108.503 66.3183 109.203V113.3H65.1291V109.315C65.1291 108.901 65.0164 108.602 64.7911 108.416C64.5657 108.23 64.2965 108.137 63.9837 108.137C63.5965 108.137 63.2956 108.257 63.0808 108.495C62.8661 108.731 62.7587 109.035 62.7587 109.406V113.3H61.5734V109.239C61.5734 108.908 61.47 108.641 61.2632 108.44C61.0564 108.238 60.7873 108.137 60.4558 108.137C60.2304 108.137 60.0223 108.197 59.8314 108.316C59.6431 108.433 59.4907 108.596 59.374 108.806C59.26 109.015 59.203 109.258 59.203 109.534V113.3H58.0138ZM70.5452 113.423C69.9433 113.423 69.4249 113.295 68.9901 113.037C68.5579 112.778 68.2238 112.413 67.9878 111.944C67.7545 111.472 67.6378 110.919 67.6378 110.285C67.6378 109.659 67.7545 109.108 67.9878 108.631C68.2238 108.153 68.5526 107.781 68.9741 107.513C69.3984 107.245 69.8942 107.111 70.4616 107.111C70.8063 107.111 71.1404 107.168 71.4639 107.282C71.7874 107.396 72.0777 107.575 72.3349 107.819C72.5921 108.063 72.795 108.38 72.9435 108.77C73.092 109.157 73.1662 109.628 73.1662 110.182V110.603H68.3099V109.712H72.0009C72.0009 109.4 71.9372 109.123 71.8099 108.881C71.6827 108.637 71.5037 108.445 71.273 108.305C71.045 108.164 70.7772 108.094 70.4696 108.094C70.1355 108.094 69.8438 108.176 69.5946 108.34C69.348 108.502 69.1571 108.714 69.0219 108.977C68.8893 109.237 68.823 109.519 68.823 109.824V110.52C68.823 110.928 68.8946 111.276 69.0378 111.562C69.1836 111.848 69.3865 112.067 69.6463 112.218C69.9062 112.367 70.2098 112.441 70.5571 112.441C70.7825 112.441 70.988 112.409 71.1736 112.345C71.3592 112.279 71.5196 112.181 71.6548 112.051C71.7901 111.921 71.8935 111.761 71.9651 111.57L73.0906 111.773C73.0005 112.104 72.8387 112.394 72.6054 112.644C72.3747 112.89 72.0844 113.083 71.7344 113.22C71.387 113.356 70.9906 113.423 70.5452 113.423ZM78.7742 113.3L76.9764 107.191H78.2054L79.4026 111.677H79.4622L80.6634 107.191H81.8923L83.0855 111.657H83.1452L84.3344 107.191H85.5634L83.7696 113.3H82.5565L81.3156 108.889H81.2242L79.9832 113.3H78.7742ZM87.8811 109.673V113.3H86.6919V105.155H87.8652V108.185H87.9408C88.0839 107.856 88.3027 107.595 88.597 107.402C88.8913 107.208 89.2758 107.111 89.7504 107.111C90.1694 107.111 90.5353 107.198 90.8482 107.37C91.1637 107.542 91.4076 107.799 91.58 108.141C91.755 108.481 91.8425 108.905 91.8425 109.414V113.3H90.6533V109.557C90.6533 109.109 90.5379 108.762 90.3072 108.515C90.0766 108.266 89.7557 108.141 89.3447 108.141C89.0637 108.141 88.8118 108.201 88.5891 108.32C88.369 108.44 88.1953 108.615 88.068 108.845C87.9434 109.073 87.8811 109.349 87.8811 109.673ZM96.0624 113.423C95.4605 113.423 94.9421 113.295 94.5072 113.037C94.0751 112.778 93.741 112.413 93.505 111.944C93.2716 111.472 93.155 110.919 93.155 110.285C93.155 109.659 93.2716 109.108 93.505 108.631C93.741 108.153 94.0697 107.781 94.4913 107.513C94.9156 107.245 95.4114 107.111 95.9788 107.111C96.3235 107.111 96.6576 107.168 96.9811 107.282C97.3046 107.396 97.5949 107.575 97.8521 107.819C98.1093 108.063 98.3122 108.38 98.4607 108.77C98.6091 109.157 98.6834 109.628 98.6834 110.182V110.603H93.8271V109.712H97.518C97.518 109.4 97.4544 109.123 97.3271 108.881C97.1999 108.637 97.0209 108.445 96.7902 108.305C96.5622 108.164 96.2944 108.094 95.9868 108.094C95.6527 108.094 95.361 108.176 95.1118 108.34C94.8652 108.502 94.6743 108.714 94.5391 108.977C94.4065 109.237 94.3402 109.519 94.3402 109.824V110.52C94.3402 110.928 94.4118 111.276 94.555 111.562C94.7008 111.848 94.9036 112.067 95.1635 112.218C95.4233 112.367 95.7269 112.441 96.0743 112.441C96.2997 112.441 96.5052 112.409 96.6908 112.345C96.8764 112.279 97.0368 112.181 97.172 112.051C97.3072 111.921 97.4107 111.761 97.4822 111.57L98.6078 111.773C98.5177 112.104 98.3559 112.394 98.1226 112.644C97.8919 112.89 97.6016 113.083 97.2516 113.22C96.9042 113.356 96.5078 113.423 96.0624 113.423ZM101.192 109.673V113.3H100.003V107.191H101.144V108.185H101.22C101.36 107.862 101.58 107.602 101.88 107.406C102.182 107.209 102.563 107.111 103.022 107.111C103.438 107.111 103.802 107.199 104.115 107.374C104.428 107.546 104.671 107.803 104.843 108.145C105.016 108.487 105.102 108.91 105.102 109.414V113.3H103.912V109.557C103.912 109.115 103.797 108.769 103.566 108.519C103.336 108.267 103.019 108.141 102.616 108.141C102.34 108.141 102.095 108.201 101.88 108.32C101.668 108.44 101.5 108.615 101.375 108.845C101.253 109.073 101.192 109.349 101.192 109.673ZM111.438 113.435C111.051 113.435 110.701 113.364 110.388 113.22C110.076 113.075 109.828 112.864 109.645 112.588C109.464 112.312 109.374 111.974 109.374 111.574C109.374 111.229 109.441 110.945 109.573 110.723C109.706 110.5 109.885 110.324 110.11 110.194C110.335 110.064 110.587 109.966 110.866 109.899C111.144 109.833 111.428 109.783 111.717 109.748C112.083 109.706 112.38 109.671 112.608 109.645C112.836 109.616 113.002 109.569 113.105 109.506C113.208 109.442 113.26 109.339 113.26 109.195V109.168C113.26 108.82 113.162 108.551 112.966 108.36C112.772 108.169 112.483 108.074 112.099 108.074C111.698 108.074 111.383 108.163 111.152 108.34C110.924 108.515 110.766 108.71 110.679 108.925L109.561 108.67C109.694 108.299 109.887 108 110.142 107.772C110.399 107.541 110.695 107.374 111.029 107.27C111.363 107.164 111.714 107.111 112.083 107.111C112.327 107.111 112.585 107.141 112.858 107.199C113.134 107.255 113.391 107.358 113.63 107.509C113.871 107.66 114.069 107.876 114.223 108.157C114.376 108.436 114.453 108.798 114.453 109.243V113.3H113.292V112.465H113.244C113.167 112.619 113.052 112.77 112.898 112.918C112.744 113.067 112.547 113.19 112.306 113.288C112.064 113.386 111.775 113.435 111.438 113.435ZM111.697 112.481C112.026 112.481 112.307 112.416 112.54 112.286C112.776 112.156 112.955 111.986 113.077 111.777C113.202 111.565 113.264 111.338 113.264 111.097V110.309C113.222 110.352 113.139 110.391 113.017 110.428C112.898 110.463 112.762 110.493 112.608 110.52C112.454 110.544 112.304 110.566 112.158 110.587C112.013 110.606 111.891 110.622 111.792 110.635C111.562 110.664 111.351 110.713 111.16 110.782C110.972 110.851 110.821 110.951 110.707 111.081C110.595 111.208 110.54 111.378 110.54 111.59C110.54 111.884 110.648 112.107 110.866 112.258C111.083 112.406 111.36 112.481 111.697 112.481ZM117.226 109.673V113.3H116.037V107.191H117.179V108.185H117.254C117.395 107.862 117.615 107.602 117.914 107.406C118.217 107.209 118.597 107.111 119.056 107.111C119.472 107.111 119.837 107.199 120.15 107.374C120.463 107.546 120.705 107.803 120.878 108.145C121.05 108.487 121.136 108.91 121.136 109.414V113.3H119.947V109.557C119.947 109.115 119.832 108.769 119.601 108.519C119.37 108.267 119.053 108.141 118.65 108.141C118.375 108.141 118.129 108.201 117.914 108.32C117.702 108.44 117.534 108.615 117.409 108.845C117.287 109.073 117.226 109.349 117.226 109.673ZM123.264 115.591C123.086 115.591 122.925 115.576 122.779 115.547C122.633 115.521 122.524 115.491 122.453 115.46L122.739 114.485C122.956 114.544 123.15 114.569 123.32 114.561C123.489 114.553 123.639 114.489 123.769 114.37C123.902 114.251 124.018 114.056 124.119 113.785L124.266 113.38L122.031 107.191H123.304L124.851 111.932H124.914L126.462 107.191H127.738L125.221 114.115C125.104 114.434 124.956 114.703 124.775 114.923C124.595 115.145 124.38 115.312 124.131 115.424C123.882 115.535 123.593 115.591 123.264 115.591ZM133.144 113.3L131.347 107.191H132.576L133.773 111.677H133.833L135.034 107.191H136.263L137.456 111.657H137.515L138.705 107.191H139.934L138.14 113.3H136.927L135.686 108.889H135.594L134.354 113.3H133.144ZM142.84 113.435C142.453 113.435 142.103 113.364 141.79 113.22C141.477 113.075 141.229 112.864 141.046 112.588C140.866 112.312 140.776 111.974 140.776 111.574C140.776 111.229 140.842 110.945 140.975 110.723C141.107 110.5 141.286 110.324 141.512 110.194C141.737 110.064 141.989 109.966 142.267 109.899C142.546 109.833 142.829 109.783 143.118 109.748C143.484 109.706 143.781 109.671 144.009 109.645C144.237 109.616 144.403 109.569 144.507 109.506C144.61 109.442 144.662 109.339 144.662 109.195V109.168C144.662 108.82 144.564 108.551 144.367 108.36C144.174 108.169 143.885 108.074 143.5 108.074C143.1 108.074 142.784 108.163 142.554 108.34C142.326 108.515 142.168 108.71 142.08 108.925L140.963 108.67C141.095 108.299 141.289 108 141.543 107.772C141.801 107.541 142.096 107.374 142.43 107.27C142.764 107.164 143.116 107.111 143.484 107.111C143.728 107.111 143.987 107.141 144.26 107.199C144.536 107.255 144.793 107.358 145.032 107.509C145.273 107.66 145.47 107.876 145.624 108.157C145.778 108.436 145.855 108.798 145.855 109.243V113.3H144.693V112.465H144.646C144.569 112.619 144.454 112.77 144.3 112.918C144.146 113.067 143.948 113.19 143.707 113.288C143.466 113.386 143.177 113.435 142.84 113.435ZM143.099 112.481C143.427 112.481 143.708 112.416 143.942 112.286C144.178 112.156 144.357 111.986 144.479 111.777C144.603 111.565 144.666 111.338 144.666 111.097V110.309C144.623 110.352 144.541 110.391 144.419 110.428C144.3 110.463 144.163 110.493 144.009 110.52C143.856 110.544 143.706 110.566 143.56 110.587C143.414 110.606 143.292 110.622 143.194 110.635C142.963 110.664 142.753 110.713 142.562 110.782C142.373 110.851 142.222 110.951 142.108 111.081C141.997 111.208 141.941 111.378 141.941 111.59C141.941 111.884 142.05 112.107 142.267 112.258C142.485 112.406 142.762 112.481 143.099 112.481ZM148.628 105.155V113.3H147.439V105.155H148.628ZM151.417 105.155V113.3H150.228V105.155H151.417ZM155.65 113.423C155.048 113.423 154.53 113.295 154.095 113.037C153.663 112.778 153.328 112.413 153.092 111.944C152.859 111.472 152.742 110.919 152.742 110.285C152.742 109.659 152.859 109.108 153.092 108.631C153.328 108.153 153.657 107.781 154.079 107.513C154.503 107.245 154.999 107.111 155.566 107.111C155.911 107.111 156.245 107.168 156.569 107.282C156.892 107.396 157.182 107.575 157.44 107.819C157.697 108.063 157.9 108.38 158.048 108.77C158.197 109.157 158.271 109.628 158.271 110.182V110.603H153.415V109.712H157.106C157.106 109.4 157.042 109.123 156.915 108.881C156.787 108.637 156.608 108.445 156.378 108.305C156.15 108.164 155.882 108.094 155.574 108.094C155.24 108.094 154.949 108.176 154.699 108.34C154.453 108.502 154.262 108.714 154.127 108.977C153.994 109.237 153.928 109.519 153.928 109.824V110.52C153.928 110.928 153.999 111.276 154.142 111.562C154.288 111.848 154.491 112.067 154.751 112.218C155.011 112.367 155.314 112.441 155.662 112.441C155.887 112.441 156.093 112.409 156.278 112.345C156.464 112.279 156.624 112.181 156.76 112.051C156.895 111.921 156.998 111.761 157.07 111.57L158.195 111.773C158.105 112.104 157.943 112.394 157.71 112.644C157.479 112.89 157.189 113.083 156.839 113.22C156.492 113.356 156.095 113.423 155.65 113.423ZM162.442 107.191V108.145H159.105V107.191H162.442ZM160 105.727H161.189V111.506C161.189 111.737 161.224 111.911 161.293 112.027C161.362 112.141 161.45 112.219 161.559 112.262C161.67 112.302 161.791 112.322 161.921 112.322C162.016 112.322 162.1 112.315 162.172 112.302C162.243 112.288 162.299 112.278 162.339 112.27L162.553 113.252C162.484 113.279 162.386 113.305 162.259 113.332C162.132 113.361 161.973 113.377 161.782 113.38C161.469 113.385 161.177 113.329 160.907 113.212C160.636 113.096 160.418 112.916 160.251 112.672C160.084 112.428 160 112.121 160 111.753V105.727ZM168.237 108.682L167.159 108.873C167.114 108.735 167.042 108.604 166.944 108.48C166.849 108.355 166.719 108.253 166.555 108.173C166.39 108.094 166.185 108.054 165.938 108.054C165.601 108.054 165.32 108.13 165.095 108.281C164.87 108.429 164.757 108.621 164.757 108.857C164.757 109.062 164.832 109.226 164.984 109.351C165.135 109.475 165.379 109.577 165.715 109.657L166.686 109.88C167.248 110.009 167.667 110.21 167.943 110.48C168.218 110.751 168.356 111.102 168.356 111.534C168.356 111.9 168.25 112.226 168.038 112.512C167.829 112.796 167.536 113.019 167.159 113.181C166.785 113.342 166.352 113.423 165.859 113.423C165.174 113.423 164.616 113.277 164.184 112.986C163.752 112.691 163.487 112.274 163.389 111.733L164.538 111.558C164.61 111.858 164.757 112.084 164.98 112.238C165.202 112.389 165.493 112.465 165.851 112.465C166.24 112.465 166.552 112.384 166.785 112.222C167.019 112.058 167.135 111.858 167.135 111.622C167.135 111.431 167.064 111.27 166.92 111.14C166.78 111.01 166.564 110.912 166.272 110.846L165.238 110.619C164.668 110.489 164.246 110.283 163.973 109.999C163.703 109.715 163.568 109.356 163.568 108.921C163.568 108.56 163.668 108.245 163.87 107.974C164.071 107.704 164.35 107.493 164.705 107.342C165.06 107.188 165.467 107.111 165.926 107.111C166.586 107.111 167.106 107.255 167.485 107.541C167.864 107.825 168.115 108.205 168.237 108.682ZM22.4997 126.3V120.191H23.6412V121.185H23.7168C23.844 120.848 24.0522 120.586 24.3412 120.398C24.6302 120.207 24.9762 120.111 25.3793 120.111C25.7876 120.111 26.1296 120.207 26.4054 120.398C26.6838 120.589 26.8893 120.851 27.0219 121.185H27.0855C27.2313 120.859 27.4634 120.599 27.7815 120.406C28.0997 120.209 28.4789 120.111 28.919 120.111C29.4732 120.111 29.9253 120.285 30.2753 120.632C30.6279 120.98 30.8043 121.503 30.8043 122.203V126.3H29.6151V122.315C29.6151 121.901 29.5024 121.602 29.277 121.416C29.0516 121.23 28.7825 121.137 28.4696 121.137C28.0825 121.137 27.7815 121.257 27.5668 121.495C27.352 121.731 27.2446 122.035 27.2446 122.406V126.3H26.0594V122.239C26.0594 121.908 25.956 121.641 25.7492 121.44C25.5423 121.238 25.2732 121.137 24.9418 121.137C24.7164 121.137 24.5082 121.197 24.3173 121.316C24.1291 121.433 23.9766 121.596 23.8599 121.806C23.7459 122.015 23.6889 122.258 23.6889 122.534V126.3H22.4997ZM34.9715 126.423C34.3987 126.423 33.8989 126.292 33.472 126.03C33.0451 125.767 32.7137 125.4 32.4777 124.928C32.2417 124.456 32.1237 123.904 32.1237 123.273C32.1237 122.64 32.2417 122.085 32.4777 121.611C32.7137 121.136 33.0451 120.768 33.472 120.505C33.8989 120.243 34.3987 120.111 34.9715 120.111C35.5442 120.111 36.044 120.243 36.4709 120.505C36.8978 120.768 37.2292 121.136 37.4652 121.611C37.7012 122.085 37.8192 122.64 37.8192 123.273C37.8192 123.904 37.7012 124.456 37.4652 124.928C37.2292 125.4 36.8978 125.767 36.4709 126.03C36.044 126.292 35.5442 126.423 34.9715 126.423ZM34.9754 125.425C35.3466 125.425 35.6542 125.327 35.8982 125.131C36.1421 124.934 36.3224 124.673 36.4391 124.347C36.5584 124.021 36.618 123.662 36.618 123.269C36.618 122.88 36.5584 122.522 36.4391 122.195C36.3224 121.867 36.1421 121.603 35.8982 121.404C35.6542 121.205 35.3466 121.106 34.9754 121.106C34.6016 121.106 34.2913 121.205 34.0447 121.404C33.8008 121.603 33.6192 121.867 33.4999 122.195C33.3832 122.522 33.3249 122.88 33.3249 123.269C33.3249 123.662 33.3832 124.021 33.4999 124.347C33.6192 124.673 33.8008 124.934 34.0447 125.131C34.2913 125.327 34.6016 125.425 34.9754 125.425ZM44.1649 120.191L41.9496 126.3H40.6768L38.4575 120.191H39.7342L41.2814 124.892H41.345L42.8882 120.191H44.1649ZM47.7077 126.423C47.1058 126.423 46.5874 126.295 46.1526 126.037C45.7204 125.778 45.3863 125.413 45.1503 124.944C44.917 124.472 44.8003 123.919 44.8003 123.285C44.8003 122.659 44.917 122.108 45.1503 121.631C45.3863 121.153 45.7151 120.781 46.1367 120.513C46.5609 120.245 47.0567 120.111 47.6242 120.111C47.9688 120.111 48.3029 120.168 48.6264 120.282C48.9499 120.396 49.2402 120.575 49.4974 120.819C49.7546 121.063 49.9575 121.38 50.106 121.77C50.2545 122.157 50.3287 122.628 50.3287 123.182V123.603H45.4724V122.712H49.1634C49.1634 122.4 49.0997 122.123 48.9724 121.881C48.8452 121.637 48.6662 121.445 48.4355 121.305C48.2075 121.164 47.9397 121.094 47.6321 121.094C47.298 121.094 47.0063 121.176 46.7571 121.34C46.5105 121.502 46.3196 121.714 46.1844 121.977C46.0518 122.237 45.9855 122.519 45.9855 122.824V123.52C45.9855 123.928 46.0571 124.276 46.2003 124.562C46.3461 124.848 46.549 125.067 46.8088 125.218C47.0687 125.367 47.3723 125.441 47.7196 125.441C47.945 125.441 48.1505 125.409 48.3361 125.345C48.5217 125.279 48.6821 125.181 48.8173 125.051C48.9526 124.921 49.056 124.761 49.1276 124.57L50.2531 124.773C50.163 125.104 50.0012 125.394 49.7679 125.644C49.5372 125.89 49.2469 126.083 48.8969 126.22C48.5495 126.356 48.1531 126.423 47.7077 126.423ZM54.6122 126.3V120.191H55.7537V121.185H55.8293C55.9565 120.848 56.1647 120.586 56.4537 120.398C56.7427 120.207 57.0887 120.111 57.4918 120.111C57.9001 120.111 58.2421 120.207 58.5179 120.398C58.7963 120.589 59.0018 120.851 59.1344 121.185H59.198C59.3438 120.859 59.5759 120.599 59.894 120.406C60.2122 120.209 60.5914 120.111 61.0315 120.111C61.5857 120.111 62.0378 120.285 62.3878 120.632C62.7404 120.98 62.9168 121.503 62.9168 122.203V126.3H61.7276V122.315C61.7276 121.901 61.6149 121.602 61.3895 121.416C61.1641 121.23 60.895 121.137 60.5821 121.137C60.195 121.137 59.894 121.257 59.6793 121.495C59.4645 121.731 59.3571 122.035 59.3571 122.406V126.3H58.1719V122.239C58.1719 121.908 58.0685 121.641 57.8616 121.44C57.6548 121.238 57.3857 121.137 57.0543 121.137C56.8289 121.137 56.6207 121.197 56.4298 121.316C56.2416 121.433 56.0891 121.596 55.9724 121.806C55.8584 122.015 55.8014 122.258 55.8014 122.534V126.3H54.6122ZM67.084 126.423C66.5112 126.423 66.0114 126.292 65.5845 126.03C65.1576 125.767 64.8262 125.4 64.5902 124.928C64.3542 124.456 64.2362 123.904 64.2362 123.273C64.2362 122.64 64.3542 122.085 64.5902 121.611C64.8262 121.136 65.1576 120.768 65.5845 120.505C66.0114 120.243 66.5112 120.111 67.084 120.111C67.6567 120.111 68.1565 120.243 68.5834 120.505C69.0103 120.768 69.3417 121.136 69.5777 121.611C69.8137 122.085 69.9317 122.64 69.9317 123.273C69.9317 123.904 69.8137 124.456 69.5777 124.928C69.3417 125.4 69.0103 125.767 68.5834 126.03C68.1565 126.292 67.6567 126.423 67.084 126.423ZM67.0879 125.425C67.4591 125.425 67.7667 125.327 68.0107 125.131C68.2546 124.934 68.4349 124.673 68.5516 124.347C68.6709 124.021 68.7305 123.662 68.7305 123.269C68.7305 122.88 68.6709 122.522 68.5516 122.195C68.4349 121.867 68.2546 121.603 68.0107 121.404C67.7667 121.205 67.4591 121.106 67.0879 121.106C66.7141 121.106 66.4038 121.205 66.1572 121.404C65.9133 121.603 65.7317 121.867 65.6124 122.195C65.4957 122.522 65.4374 122.88 65.4374 123.269C65.4374 123.662 65.4957 124.021 65.6124 124.347C65.7317 124.673 65.9133 124.934 66.1572 125.131C66.4038 125.327 66.7141 125.425 67.0879 125.425ZM71.2591 126.3V120.191H72.4085V121.161H72.4722C72.5835 120.833 72.7797 120.574 73.0608 120.386C73.3445 120.195 73.6653 120.099 74.0233 120.099C74.0975 120.099 74.185 120.102 74.2858 120.107C74.3892 120.113 74.4701 120.119 74.5284 120.127V121.265C74.4807 121.252 74.3958 121.237 74.2739 121.221C74.1519 121.202 74.0299 121.193 73.908 121.193C73.6269 121.193 73.3763 121.253 73.1563 121.372C72.9388 121.489 72.7665 121.652 72.6392 121.861C72.5119 122.068 72.4483 122.304 72.4483 122.569V126.3H71.2591ZM77.9717 126.423C77.3698 126.423 76.8515 126.295 76.4166 126.037C75.9844 125.778 75.6503 125.413 75.4143 124.944C75.181 124.472 75.0643 123.919 75.0643 123.285C75.0643 122.659 75.181 122.108 75.4143 121.631C75.6503 121.153 75.9791 120.781 76.4007 120.513C76.825 120.245 77.3208 120.111 77.8882 120.111C78.2329 120.111 78.567 120.168 78.8905 120.282C79.214 120.396 79.5043 120.575 79.7615 120.819C80.0187 121.063 80.2215 121.38 80.37 121.77C80.5185 122.157 80.5928 122.628 80.5928 123.182V123.603H75.7365V122.712H79.4274C79.4274 122.4 79.3638 122.123 79.2365 121.881C79.1092 121.637 78.9303 121.445 78.6996 121.305C78.4715 121.164 78.2037 121.094 77.8962 121.094C77.5621 121.094 77.2704 121.176 77.0212 121.34C76.7746 121.502 76.5837 121.714 76.4484 121.977C76.3159 122.237 76.2496 122.519 76.2496 122.824V123.52C76.2496 123.928 76.3212 124.276 76.4643 124.562C76.6102 124.848 76.813 125.067 77.0729 125.218C77.3327 125.367 77.6363 125.441 77.9837 125.441C78.209 125.441 78.4145 125.409 78.6001 125.345C78.7858 125.279 78.9462 125.181 79.0814 125.051C79.2166 124.921 79.32 124.761 79.3916 124.57L80.5172 124.773C80.427 125.104 80.2653 125.394 80.032 125.644C79.8013 125.89 79.5109 126.083 79.1609 126.22C78.8136 126.356 78.4172 126.423 77.9717 126.423ZM87.728 120.191V121.145H84.3911V120.191H87.728ZM85.2859 118.727H86.4751V124.506C86.4751 124.737 86.5096 124.911 86.5786 125.027C86.6475 125.141 86.7363 125.219 86.845 125.262C86.9564 125.302 87.077 125.322 87.207 125.322C87.3024 125.322 87.3859 125.315 87.4575 125.302C87.5291 125.288 87.5848 125.278 87.6246 125.27L87.8393 126.252C87.7704 126.279 87.6723 126.305 87.545 126.332C87.4178 126.361 87.2587 126.377 87.0678 126.38C86.7549 126.385 86.4632 126.329 86.1928 126.212C85.9223 126.096 85.7036 125.916 85.5365 125.672C85.3695 125.428 85.2859 125.121 85.2859 124.753V118.727ZM90.3639 122.673V126.3H89.1747V118.155H90.348V121.185H90.4236C90.5668 120.856 90.7855 120.595 91.0798 120.402C91.3742 120.208 91.7586 120.111 92.2332 120.111C92.6522 120.111 93.0181 120.198 93.331 120.37C93.6465 120.542 93.8904 120.799 94.0628 121.141C94.2378 121.481 94.3253 121.905 94.3253 122.414V126.3H93.1361V122.557C93.1361 122.109 93.0207 121.762 92.7901 121.515C92.5594 121.266 92.2385 121.141 91.8276 121.141C91.5465 121.141 91.2946 121.201 91.0719 121.32C90.8518 121.44 90.6781 121.615 90.5509 121.845C90.4262 122.073 90.3639 122.349 90.3639 122.673ZM97.6901 126.435C97.3029 126.435 96.9529 126.364 96.6401 126.22C96.3272 126.075 96.0793 125.864 95.8963 125.588C95.716 125.312 95.6259 124.974 95.6259 124.574C95.6259 124.229 95.6921 123.945 95.8247 123.723C95.9573 123.5 96.1363 123.324 96.3616 123.194C96.587 123.064 96.8389 122.966 97.1173 122.899C97.3957 122.833 97.6795 122.783 97.9685 122.748C98.3344 122.706 98.6313 122.671 98.8594 122.645C99.0874 122.616 99.2531 122.569 99.3565 122.506C99.4599 122.442 99.5116 122.339 99.5116 122.195V122.168C99.5116 121.82 99.4135 121.551 99.2173 121.36C99.0238 121.169 98.7348 121.074 98.3503 121.074C97.9499 121.074 97.6344 121.163 97.4037 121.34C97.1757 121.515 97.0179 121.71 96.9304 121.925L95.8128 121.67C95.9454 121.299 96.1389 121 96.3935 120.772C96.6507 120.541 96.9463 120.374 97.2804 120.27C97.6145 120.164 97.9658 120.111 98.3344 120.111C98.5783 120.111 98.8368 120.141 99.1099 120.199C99.3857 120.255 99.6429 120.358 99.8815 120.509C100.123 120.66 100.32 120.876 100.474 121.157C100.628 121.436 100.705 121.798 100.705 122.243V126.3H99.5435V125.465H99.4957C99.4188 125.619 99.3035 125.77 99.1497 125.918C98.9959 126.067 98.7984 126.19 98.5571 126.288C98.3158 126.386 98.0268 126.435 97.6901 126.435ZM97.9486 125.481C98.2774 125.481 98.5584 125.416 98.7918 125.286C99.0277 125.156 99.2067 124.986 99.3287 124.777C99.4533 124.565 99.5156 124.338 99.5156 124.097V123.309C99.4732 123.352 99.391 123.391 99.269 123.428C99.1497 123.463 99.0132 123.493 98.8594 123.52C98.7056 123.544 98.5558 123.566 98.4099 123.587C98.2641 123.606 98.1421 123.622 98.044 123.635C97.8134 123.664 97.6026 123.713 97.4116 123.782C97.2234 123.851 97.0723 123.951 96.9582 124.081C96.8469 124.208 96.7912 124.378 96.7912 124.59C96.7912 124.884 96.8999 125.107 97.1173 125.258C97.3348 125.406 97.6118 125.481 97.9486 125.481ZM103.478 122.673V126.3H102.289V120.191H103.43V121.185H103.506C103.646 120.862 103.866 120.602 104.166 120.406C104.468 120.209 104.849 120.111 105.308 120.111C105.724 120.111 106.088 120.199 106.401 120.374C106.714 120.546 106.957 120.803 107.129 121.145C107.301 121.487 107.388 121.91 107.388 122.414V126.3H106.198V122.557C106.198 122.115 106.083 121.769 105.852 121.519C105.622 121.267 105.305 121.141 104.902 121.141C104.626 121.141 104.381 121.201 104.166 121.32C103.954 121.44 103.786 121.615 103.661 121.845C103.539 122.073 103.478 122.349 103.478 122.673Z" fill="#19191A"/>
<defs>
<filter id="filter0_dd_1_222" x="0.700195" y="0.8" width="203.7" height="185.5" filterUnits="userSpaceOnUse" color-interpolation-filters="sRGB">
<feFlood flood-opacity="0" result="BackgroundImageFix"/>
<feColorMatrix in="SourceAlpha" type="matrix" values="0 0 0 0 0 0 0 0 0 0 0 0 0 0 0 0 0 0 127 0" result="hardAlpha"/>
<feOffset dy="0.7"/>
<feGaussianBlur stdDeviation="0.35"/>
<feComposite in2="hardAlpha" operator="out"/>
<feColorMatrix type="matrix" values="0 0 0 0 0 0 0 0 0 0 0 0 0 0 0 0 0 0 0.04 0"/>
<feBlend mode="normal" in2="BackgroundImageFix" result="effect1_dropShadow_1_222"/>
<feColorMatrix in="SourceAlpha" type="matrix" values="0 0 0 0 0 0 0 0 0 0 0 0 0 0 0 0 0 0 127 0" result="hardAlpha"/>
<feOffset dy="2.8"/>
<feGaussianBlur stdDeviation="3.5"/>
<feComposite in2="hardAlpha" operator="out"/>
<feColorMatrix type="matrix" values="0 0 0 0 0 0 0 0 0 0 0 0 0 0 0 0 0 0 0.04 0"/>
<feBlend mode="normal" in2="effect1_dropShadow_1_222" result="effect2_dropShadow_1_222"/>
<feBlend mode="normal" in="SourceGraphic" in2="effect2_dropShadow_1_222" result="shape"/>
</filter>
</defs>
</svg>
