<svg width="205" height="187" viewBox="0 0 205 187" fill="none" xmlns="http://www.w3.org/2000/svg">
<g filter="url(#filter0_dd_1_235)">
<rect x="7.40039" y="5" width="189.7" height="171.5" rx="8.4" fill="white" shape-rendering="crispEdges"/>
<rect x="169.1" y="19" width="14" height="14" rx="4.2" fill="#0071E3"/>
<path d="M175.364 29.3279C175.67 29.3279 175.9 29.2108 176.056 28.9765L179.436 23.8839C179.492 23.8009 179.533 23.7191 179.56 23.6386C179.587 23.5556 179.6 23.4763 179.6 23.4006C179.6 23.1907 179.527 23.0174 179.381 22.8807C179.237 22.7416 179.058 22.6721 178.846 22.6721C178.7 22.6721 178.575 22.7013 178.473 22.7599C178.373 22.8161 178.277 22.9137 178.187 23.0528L175.35 27.5084L173.929 25.8059C173.776 25.6278 173.583 25.5387 173.351 25.5387C173.134 25.5387 172.954 25.6083 172.813 25.7474C172.671 25.8865 172.6 26.061 172.6 26.2709C172.6 26.3661 172.615 26.4564 172.644 26.5418C172.676 26.6248 172.733 26.7115 172.816 26.8018L174.702 29.024C174.875 29.2266 175.096 29.3279 175.364 29.3279Z" fill="white"/>
<path d="M35.4001 44.6664C41.8434 44.6664 47.0667 39.4431 47.0667 32.9998C47.0667 26.5564 41.8434 21.3331 35.4001 21.3331C28.9567 21.3331 23.7334 26.5564 23.7334 32.9998C23.7334 39.4431 28.9567 44.6664 35.4001 44.6664Z" stroke="black" stroke-width="1.4" stroke-linecap="round" stroke-linejoin="round"/>
<path d="M35.4003 26V33L40.067 35.3333" stroke="black" stroke-width="1.4" stroke-linecap="round" stroke-linejoin="round"/>
</g>
<rect x="21.4003" y="121.2" width="66.4" height="19.6" rx="2.8" fill="#E5E5E6" fill-opacity="0.5"/>
<path d="M31.4278 131.637L27.1363 133.718V132.729L30.3032 131.288L30.2709 131.343V131.204L30.3032 131.262L27.1363 129.818V128.832L31.4278 130.913V131.637ZM37.6606 134.59C37.2168 134.59 36.8204 134.514 36.4714 134.361C36.1246 134.208 35.8499 133.996 35.6474 133.724C35.447 133.451 35.3393 133.134 35.3242 132.774H36.3389C36.3519 132.97 36.4176 133.141 36.5361 133.285C36.6567 133.427 36.814 133.537 37.0079 133.615C37.2018 133.692 37.4172 133.731 37.6542 133.731C37.9149 133.731 38.1454 133.686 38.3457 133.595C38.5482 133.505 38.7066 133.379 38.8208 133.217C38.9349 133.053 38.992 132.865 38.992 132.652C38.992 132.43 38.9349 132.235 38.8208 132.067C38.7087 131.896 38.5439 131.763 38.3263 131.666C38.1109 131.569 37.8502 131.521 37.5443 131.521H36.9852V130.706H37.5443C37.7899 130.706 38.0053 130.662 38.1906 130.574C38.378 130.485 38.5245 130.363 38.6301 130.205C38.7357 130.046 38.7884 129.86 38.7884 129.646C38.7884 129.442 38.7421 129.264 38.6495 129.113C38.559 128.96 38.4297 128.841 38.2617 128.754C38.0958 128.668 37.8998 128.625 37.6736 128.625C37.4581 128.625 37.2567 128.665 37.0693 128.745C36.884 128.822 36.7332 128.934 36.6169 129.081C36.5005 129.225 36.438 129.398 36.4294 129.601H35.4632C35.474 129.243 35.5795 128.929 35.7799 128.657C35.9824 128.386 36.2495 128.174 36.5813 128.021C36.9131 127.868 37.2815 127.791 37.6865 127.791C38.1109 127.791 38.4771 127.874 38.7852 128.04C39.0954 128.204 39.3346 128.423 39.5026 128.696C39.6728 128.97 39.7568 129.269 39.7547 129.595C39.7568 129.965 39.6534 130.28 39.4444 130.538C39.2376 130.797 38.9619 130.97 38.6172 131.058V131.11C39.0567 131.177 39.3971 131.351 39.6383 131.634C39.8818 131.916 40.0024 132.266 40.0003 132.684C40.0024 133.048 39.9012 133.374 39.6965 133.663C39.494 133.952 39.2172 134.179 38.866 134.345C38.5148 134.509 38.1131 134.59 37.6606 134.59ZM43.5259 134.61C43.0153 134.608 42.579 134.473 42.2171 134.206C41.8552 133.939 41.5783 133.55 41.3866 133.039C41.1949 132.529 41.099 131.914 41.099 131.194C41.099 130.477 41.1949 129.864 41.3866 129.355C41.5805 128.847 41.8584 128.459 42.2203 128.192C42.5844 127.925 43.0196 127.791 43.5259 127.791C44.0321 127.791 44.4662 127.926 44.8282 128.195C45.1901 128.462 45.4669 128.85 45.6587 129.359C45.8526 129.865 45.9495 130.477 45.9495 131.194C45.9495 131.916 45.8537 132.532 45.6619 133.043C45.4702 133.551 45.1933 133.94 44.8314 134.209C44.4695 134.476 44.0343 134.61 43.5259 134.61ZM43.5259 133.747C43.974 133.747 44.3241 133.528 44.5761 133.091C44.8303 132.654 44.9574 132.021 44.9574 131.194C44.9574 130.645 44.8993 130.181 44.7829 129.801C44.6688 129.42 44.5039 129.131 44.2885 128.935C44.0752 128.737 43.821 128.638 43.5259 128.638C43.0799 128.638 42.7298 128.858 42.4756 129.297C42.2214 129.737 42.0932 130.369 42.0911 131.194C42.0911 131.746 42.1482 132.212 42.2623 132.593C42.3787 132.973 42.5435 133.26 42.7568 133.456C42.97 133.65 43.2264 133.747 43.5259 133.747ZM51.3753 134.597C50.9746 134.597 50.6169 134.495 50.3024 134.29C49.99 134.083 49.7444 133.789 49.5656 133.408C49.389 133.024 49.3006 132.564 49.3006 132.028C49.3006 131.491 49.39 131.033 49.5688 130.651C49.7498 130.27 49.9976 129.978 50.3121 129.775C50.6266 129.573 50.9832 129.472 51.3817 129.472C51.6898 129.472 51.9376 129.523 52.125 129.627C52.3146 129.728 52.4611 129.847 52.5645 129.982C52.67 130.118 52.7519 130.238 52.8101 130.341H52.8682V127.882H53.8345V134.5H52.8909V133.728H52.8101C52.7519 133.833 52.6679 133.954 52.558 134.09C52.4503 134.225 52.3016 134.344 52.1121 134.445C51.9225 134.546 51.6769 134.597 51.3753 134.597ZM51.5885 133.773C51.8665 133.773 52.1013 133.7 52.293 133.553C52.4869 133.405 52.6334 133.199 52.7325 132.936C52.8338 132.673 52.8844 132.367 52.8844 132.018C52.8844 131.673 52.8348 131.372 52.7357 131.113C52.6366 130.855 52.4912 130.653 52.2995 130.509C52.1077 130.365 51.8708 130.293 51.5885 130.293C51.2977 130.293 51.0553 130.368 50.8615 130.519C50.6676 130.67 50.5211 130.875 50.422 131.136C50.325 131.397 50.2765 131.691 50.2765 132.018C50.2765 132.35 50.3261 132.648 50.4252 132.913C50.5243 133.178 50.6708 133.388 50.8647 133.543C51.0607 133.696 51.302 133.773 51.5885 133.773ZM56.658 134.61C56.3435 134.61 56.0591 134.552 55.8049 134.435C55.5507 134.317 55.3492 134.146 55.2006 133.922C55.0541 133.698 54.9809 133.423 54.9809 133.098C54.9809 132.817 55.0347 132.587 55.1424 132.406C55.2501 132.225 55.3956 132.082 55.5787 131.976C55.7618 131.871 55.9665 131.791 56.1927 131.737C56.4189 131.683 56.6494 131.642 56.8842 131.614C57.1815 131.58 57.4228 131.552 57.6081 131.53C57.7934 131.507 57.928 131.469 58.012 131.417C58.0961 131.365 58.1381 131.281 58.1381 131.165V131.142C58.1381 130.86 58.0583 130.642 57.8989 130.486C57.7417 130.331 57.5068 130.254 57.1945 130.254C56.8691 130.254 56.6128 130.326 56.4253 130.47C56.2401 130.612 56.1119 130.771 56.0408 130.945L55.1327 130.738C55.2405 130.437 55.3977 130.193 55.6045 130.008C55.8135 129.821 56.0537 129.685 56.3252 129.601C56.5966 129.515 56.8821 129.472 57.1815 129.472C57.3797 129.472 57.5898 129.495 57.8117 129.543C58.0357 129.588 58.2447 129.672 58.4386 129.795C58.6346 129.918 58.7951 130.093 58.9201 130.322C59.045 130.548 59.1075 130.842 59.1075 131.204V134.5H58.1639V133.821H58.1251C58.0627 133.946 57.9689 134.069 57.844 134.19C57.719 134.31 57.5585 134.411 57.3625 134.49C57.1664 134.57 56.9316 134.61 56.658 134.61ZM56.8681 133.834C57.1352 133.834 57.3636 133.782 57.5532 133.676C57.7449 133.57 57.8903 133.433 57.9894 133.262C58.0907 133.09 58.1413 132.906 58.1413 132.71V132.07C58.1068 132.104 58.04 132.137 57.9409 132.167C57.844 132.195 57.733 132.22 57.6081 132.241C57.4831 132.261 57.3614 132.279 57.2429 132.296C57.1244 132.311 57.0253 132.324 56.9456 132.335C56.7582 132.359 56.5869 132.398 56.4318 132.454C56.2789 132.51 56.1561 132.591 56.0634 132.697C55.9729 132.8 55.9277 132.938 55.9277 133.11C55.9277 133.35 56.016 133.531 56.1927 133.653C56.3693 133.774 56.5945 133.834 56.8681 133.834ZM60.8275 136.361C60.6832 136.361 60.5517 136.35 60.4333 136.326C60.3148 136.304 60.2264 136.281 60.1683 136.255L60.4009 135.463C60.5776 135.51 60.7349 135.531 60.8727 135.524C61.0106 135.518 61.1323 135.466 61.2379 135.369C61.3456 135.272 61.4404 135.114 61.5223 134.894L61.6419 134.565L59.8257 129.536H60.8598L62.1169 133.388H62.1686L63.4257 129.536H64.463L62.4174 135.162C62.3226 135.421 62.202 135.64 62.0555 135.818C61.909 135.999 61.7345 136.135 61.532 136.226C61.3295 136.316 61.0946 136.361 60.8275 136.361ZM69.0905 130.748L68.2148 130.903C68.1782 130.791 68.12 130.685 68.0403 130.583C67.9627 130.482 67.8572 130.399 67.7236 130.335C67.59 130.27 67.4231 130.238 67.2227 130.238C66.9491 130.238 66.7207 130.299 66.5376 130.422C66.3545 130.542 66.2629 130.699 66.2629 130.89C66.2629 131.056 66.3243 131.19 66.4471 131.291C66.5699 131.392 66.7681 131.475 67.0417 131.54L67.8302 131.721C68.287 131.826 68.6274 131.989 68.8514 132.209C69.0755 132.429 69.1875 132.714 69.1875 133.065C69.1875 133.363 69.1013 133.627 68.929 133.86C68.7588 134.091 68.5207 134.272 68.2148 134.403C67.911 134.534 67.5588 134.6 67.1581 134.6C66.6023 134.6 66.1488 134.482 65.7976 134.245C65.4464 134.006 65.231 133.666 65.1513 133.227L66.0852 133.085C66.1434 133.328 66.2629 133.512 66.4439 133.637C66.6249 133.76 66.8608 133.821 67.1516 133.821C67.4683 133.821 67.7214 133.756 67.911 133.624C68.1006 133.491 68.1954 133.328 68.1954 133.136C68.1954 132.981 68.1372 132.851 68.0209 132.745C67.9067 132.64 67.7311 132.56 67.4942 132.506L66.654 132.322C66.1908 132.216 65.8482 132.048 65.6263 131.818C65.4066 131.587 65.2967 131.295 65.2967 130.942C65.2967 130.649 65.3786 130.393 65.5423 130.173C65.706 129.953 65.9323 129.782 66.2209 129.659C66.5096 129.534 66.8403 129.472 67.213 129.472C67.7495 129.472 68.1717 129.588 68.4798 129.821C68.7879 130.051 68.9914 130.36 69.0905 130.748Z" fill="#313233"/>
<path d="M75.499 129.899L77.8766 132.276C77.9449 132.345 78.0557 132.345 78.1241 132.276L80.5015 129.899C80.6118 129.789 80.5337 129.6 80.3778 129.6H75.6228C75.4669 129.6 75.3888 129.789 75.499 129.899Z" fill="#96979A"/>
<path d="M28.8696 89.0546V97.2H27.7401L23.5997 91.2261H23.5242V97.2H22.2952V89.0546H23.4327L27.577 95.0364H27.6526V89.0546H28.8696ZM33.1402 97.3233C32.5675 97.3233 32.0677 97.1921 31.6408 96.9296C31.2139 96.6671 30.8824 96.2998 30.6465 95.8279C30.4105 95.3559 30.2925 94.8044 30.2925 94.1733C30.2925 93.5396 30.4105 92.9854 30.6465 92.5108C30.8824 92.0362 31.2139 91.6676 31.6408 91.4051C32.0677 91.1426 32.5675 91.0114 33.1402 91.0114C33.7129 91.0114 34.2128 91.1426 34.6396 91.4051C35.0665 91.6676 35.398 92.0362 35.634 92.5108C35.8699 92.9854 35.9879 93.5396 35.9879 94.1733C35.9879 94.8044 35.8699 95.3559 35.634 95.8279C35.398 96.2998 35.0665 96.6671 34.6396 96.9296C34.2128 97.1921 33.7129 97.3233 33.1402 97.3233ZM33.1442 96.325C33.5154 96.325 33.823 96.2269 34.0669 96.0307C34.3109 95.8345 34.4912 95.5733 34.6078 95.2472C34.7271 94.921 34.7868 94.5618 34.7868 94.1693C34.7868 93.7796 34.7271 93.4216 34.6078 93.0955C34.4912 92.7667 34.3109 92.5029 34.0669 92.304C33.823 92.1051 33.5154 92.0057 33.1442 92.0057C32.7703 92.0057 32.4601 92.1051 32.2135 92.304C31.9696 92.5029 31.7879 92.7667 31.6686 93.0955C31.552 93.4216 31.4936 93.7796 31.4936 94.1693C31.4936 94.5618 31.552 94.921 31.6686 95.2472C31.7879 95.5733 31.9696 95.8345 32.2135 96.0307C32.4601 96.2269 32.7703 96.325 33.1442 96.325ZM40.1671 91.0909V92.0455H36.8301V91.0909H40.1671ZM37.725 89.6273H38.9142V95.4063C38.9142 95.6369 38.9487 95.8106 39.0176 95.9273C39.0866 96.0413 39.1754 96.1195 39.2841 96.1619C39.3955 96.2017 39.5161 96.2216 39.646 96.2216C39.7415 96.2216 39.825 96.215 39.8966 96.2017C39.9682 96.1885 40.0239 96.1779 40.0637 96.1699L40.2784 97.1523C40.2095 97.1788 40.1114 97.2053 39.9841 97.2318C39.8568 97.261 39.6977 97.2769 39.5068 97.2796C39.194 97.2849 38.9023 97.2292 38.6318 97.1125C38.3614 96.9958 38.1426 96.8155 37.9756 96.5716C37.8085 96.3277 37.725 96.0214 37.725 95.6529V89.6273ZM41.4825 97.2V91.0909H42.6717V97.2H41.4825ZM42.0831 90.1483C41.8763 90.1483 41.6986 90.0794 41.5502 89.9415C41.4043 89.801 41.3314 89.6339 41.3314 89.4404C41.3314 89.2441 41.4043 89.0771 41.5502 88.9392C41.6986 88.7987 41.8763 88.7284 42.0831 88.7284C42.2899 88.7284 42.4663 88.7987 42.6121 88.9392C42.7606 89.0771 42.8348 89.2441 42.8348 89.4404C42.8348 89.6339 42.7606 89.801 42.6121 89.9415C42.4663 90.0794 42.2899 90.1483 42.0831 90.1483ZM47.179 91.0909V92.0455H43.7267V91.0909H47.179ZM44.6733 97.2V90.383C44.6733 90.0011 44.7568 89.6843 44.9239 89.4324C45.0909 89.1779 45.3123 88.9883 45.5881 88.8636C45.8638 88.7364 46.1635 88.6727 46.4869 88.6727C46.7256 88.6727 46.9297 88.6926 47.0994 88.7324C47.2691 88.7695 47.3951 88.804 47.4773 88.8358L47.1989 89.7983C47.1432 89.7824 47.0716 89.7638 46.9841 89.7426C46.8966 89.7188 46.7905 89.7068 46.6659 89.7068C46.3769 89.7068 46.1701 89.7784 46.0455 89.9216C45.9235 90.0648 45.8625 90.2716 45.8625 90.5421V97.2H44.6733ZM49.1577 99.4909C48.98 99.4909 48.8183 99.4763 48.6725 99.4472C48.5266 99.4207 48.4179 99.3915 48.3463 99.3597L48.6327 98.3852C48.8501 98.4436 49.0437 98.4688 49.2134 98.4608C49.3831 98.4529 49.5329 98.3892 49.6628 98.2699C49.7954 98.1506 49.912 97.9557 50.0128 97.6852L50.16 97.2796L47.9247 91.0909H49.1975L50.7446 95.8318H50.8083L52.3554 91.0909H53.6321L51.1145 98.0154C50.9978 98.3335 50.8494 98.6027 50.669 98.8227C50.4887 99.0455 50.274 99.2125 50.0247 99.3239C49.7755 99.4352 49.4865 99.4909 49.1577 99.4909ZM57.7138 97.2V91.0909H58.8553V92.0852H58.9308C59.0581 91.7485 59.2663 91.486 59.5553 91.2977C59.8443 91.1068 60.1903 91.0114 60.5933 91.0114C61.0017 91.0114 61.3437 91.1068 61.6195 91.2977C61.8979 91.4886 62.1034 91.7511 62.236 92.0852H62.2996C62.4454 91.7591 62.6774 91.4993 62.9956 91.3057C63.3138 91.1095 63.693 91.0114 64.1331 91.0114C64.6873 91.0114 65.1394 91.1851 65.4894 91.5324C65.842 91.8797 66.0183 92.4034 66.0183 93.1034V97.2H64.8291V93.2148C64.8291 92.8011 64.7164 92.5015 64.4911 92.3159C64.2657 92.1303 63.9966 92.0375 63.6837 92.0375C63.2966 92.0375 62.9956 92.1568 62.7808 92.3955C62.5661 92.6315 62.4587 92.9351 62.4587 93.3063V97.2H61.2735V93.1392C61.2735 92.8078 61.17 92.5413 60.9632 92.3398C60.7564 92.1383 60.4873 92.0375 60.1558 92.0375C59.9305 92.0375 59.7223 92.0972 59.5314 92.2165C59.3431 92.3332 59.1907 92.4962 59.074 92.7057C58.96 92.9152 58.903 93.1578 58.903 93.4335V97.2H57.7138ZM70.2452 97.3233C69.6433 97.3233 69.1249 97.1947 68.6901 96.9375C68.2579 96.6777 67.9238 96.3131 67.6878 95.8438C67.4545 95.3718 67.3378 94.819 67.3378 94.1852C67.3378 93.5595 67.4545 93.008 67.6878 92.5307C67.9238 92.0534 68.2526 91.6809 68.6742 91.4131C69.0984 91.1453 69.5942 91.0114 70.1617 91.0114C70.5064 91.0114 70.8404 91.0684 71.1639 91.1824C71.4874 91.2964 71.7778 91.4754 72.035 91.7193C72.2922 91.9633 72.495 92.2801 72.6435 92.6699C72.792 93.057 72.8662 93.5277 72.8662 94.0818V94.5034H68.01V93.6125H71.7009C71.7009 93.2996 71.6372 93.0226 71.51 92.7813C71.3827 92.5373 71.2037 92.3451 70.973 92.2046C70.745 92.064 70.4772 91.9938 70.1696 91.9938C69.8355 91.9938 69.5439 92.076 69.2946 92.2404C69.048 92.4021 68.8571 92.6142 68.7219 92.8767C68.5893 93.1366 68.523 93.419 68.523 93.7239V94.4199C68.523 94.8282 68.5946 95.1756 68.7378 95.4619C68.8836 95.7483 69.0865 95.9671 69.3463 96.1182C69.6062 96.2667 69.9098 96.3409 70.2571 96.3409C70.4825 96.3409 70.688 96.3091 70.8736 96.2455C71.0592 96.1792 71.2196 96.0811 71.3548 95.9511C71.4901 95.8212 71.5935 95.6608 71.6651 95.4699L72.7906 95.6727C72.7005 96.0042 72.5387 96.2945 72.3054 96.5438C72.0747 96.7904 71.7844 96.9826 71.4344 97.1205C71.087 97.2557 70.6906 97.3233 70.2452 97.3233ZM78.4742 97.2L76.6764 91.0909H77.9054L79.1026 95.5773H79.1622L80.3634 91.0909H81.5923L82.7855 95.5574H82.8452L84.0344 91.0909H85.2634L83.4696 97.2H82.2565L81.0156 92.7892H80.9242L79.6833 97.2H78.4742ZM87.5811 93.5727V97.2H86.3919V89.0546H87.5652V92.0852H87.6408C87.784 91.7565 88.0027 91.4953 88.297 91.3017C88.5913 91.1082 88.9758 91.0114 89.4504 91.0114C89.8694 91.0114 90.2353 91.0976 90.5482 91.2699C90.8637 91.4422 91.1076 91.6994 91.28 92.0415C91.455 92.3809 91.5425 92.8051 91.5425 93.3142V97.2H90.3533V93.4574C90.3533 93.0093 90.2379 92.6619 90.0073 92.4154C89.7766 92.1661 89.4557 92.0415 89.0448 92.0415C88.7637 92.0415 88.5118 92.1011 88.2891 92.2205C88.069 92.3398 87.8953 92.5148 87.7681 92.7455C87.6434 92.9735 87.5811 93.2493 87.5811 93.5727ZM95.7624 97.3233C95.1605 97.3233 94.6421 97.1947 94.2073 96.9375C93.7751 96.6777 93.441 96.3131 93.205 95.8438C92.9717 95.3718 92.855 94.819 92.855 94.1852C92.855 93.5595 92.9717 93.008 93.205 92.5307C93.441 92.0534 93.7698 91.6809 94.1914 91.4131C94.6156 91.1453 95.1114 91.0114 95.6789 91.0114C96.0235 91.0114 96.3576 91.0684 96.6811 91.1824C97.0046 91.2964 97.2949 91.4754 97.5521 91.7193C97.8093 91.9633 98.0122 92.2801 98.1607 92.6699C98.3092 93.057 98.3834 93.5277 98.3834 94.0818V94.5034H93.5271V93.6125H97.2181C97.2181 93.2996 97.1544 93.0226 97.0271 92.7813C96.8999 92.5373 96.7209 92.3451 96.4902 92.2046C96.2622 92.064 95.9944 91.9938 95.6868 91.9938C95.3527 91.9938 95.061 92.076 94.8118 92.2404C94.5652 92.4021 94.3743 92.6142 94.2391 92.8767C94.1065 93.1366 94.0402 93.419 94.0402 93.7239V94.4199C94.0402 94.8282 94.1118 95.1756 94.255 95.4619C94.4008 95.7483 94.6037 95.9671 94.8635 96.1182C95.1234 96.2667 95.427 96.3409 95.7743 96.3409C95.9997 96.3409 96.2052 96.3091 96.3908 96.2455C96.5764 96.1792 96.7368 96.0811 96.872 95.9511C97.0073 95.8212 97.1107 95.6608 97.1823 95.4699L98.3078 95.6727C98.2177 96.0042 98.0559 96.2945 97.8226 96.5438C97.5919 96.7904 97.3016 96.9826 96.9516 97.1205C96.6042 97.2557 96.2078 97.3233 95.7624 97.3233ZM100.892 93.5727V97.2H99.7029V91.0909H100.844V92.0852H100.92C101.06 91.7618 101.281 91.5019 101.58 91.3057C101.882 91.1095 102.263 91.0114 102.722 91.0114C103.138 91.0114 103.502 91.0989 103.815 91.2739C104.128 91.4462 104.371 91.7034 104.543 92.0455C104.716 92.3875 104.802 92.8104 104.802 93.3142V97.2H103.613V93.4574C103.613 93.0146 103.497 92.6686 103.266 92.4193C103.036 92.1674 102.719 92.0415 102.316 92.0415C102.04 92.0415 101.795 92.1011 101.58 92.2205C101.368 92.3398 101.2 92.5148 101.075 92.7455C100.953 92.9735 100.892 93.2493 100.892 93.5727ZM111.139 97.3352C110.751 97.3352 110.401 97.2636 110.089 97.1205C109.776 96.9746 109.528 96.7638 109.345 96.4881C109.164 96.2123 109.074 95.8743 109.074 95.4739C109.074 95.1292 109.141 94.8455 109.273 94.6227C109.406 94.4 109.585 94.2237 109.81 94.0938C110.035 93.9638 110.287 93.8657 110.566 93.7994C110.844 93.7332 111.128 93.6828 111.417 93.6483C111.783 93.6059 112.08 93.5714 112.308 93.5449C112.536 93.5157 112.702 93.4693 112.805 93.4057C112.908 93.3421 112.96 93.2386 112.96 93.0955V93.0676C112.96 92.7203 112.862 92.4511 112.666 92.2602C112.472 92.0693 112.183 91.9739 111.799 91.9739C111.398 91.9739 111.083 92.0627 110.852 92.2404C110.624 92.4154 110.466 92.6102 110.379 92.825L109.261 92.5705C109.394 92.1993 109.587 91.8996 109.842 91.6716C110.099 91.4409 110.395 91.2739 110.729 91.1705C111.063 91.0644 111.414 91.0114 111.783 91.0114C112.027 91.0114 112.285 91.0405 112.558 91.0989C112.834 91.1546 113.091 91.258 113.33 91.4091C113.571 91.5602 113.769 91.7763 113.923 92.0574C114.076 92.3358 114.153 92.6977 114.153 93.1432V97.2H112.992V96.3648H112.944C112.867 96.5186 112.752 96.6697 112.598 96.8182C112.444 96.9667 112.247 97.09 112.006 97.1881C111.764 97.2862 111.475 97.3352 111.139 97.3352ZM111.397 96.3807C111.726 96.3807 112.007 96.3157 112.24 96.1858C112.476 96.0559 112.655 95.8862 112.777 95.6767C112.902 95.4646 112.964 95.2379 112.964 94.9966V94.2091C112.922 94.2515 112.839 94.2913 112.717 94.3284C112.598 94.3629 112.462 94.3934 112.308 94.4199C112.154 94.4438 112.004 94.4663 111.858 94.4875C111.713 94.5061 111.591 94.522 111.492 94.5352C111.262 94.5644 111.051 94.6135 110.86 94.6824C110.672 94.7513 110.521 94.8508 110.407 94.9807C110.295 95.108 110.24 95.2777 110.24 95.4898C110.24 95.7841 110.348 96.0068 110.566 96.158C110.783 96.3065 111.06 96.3807 111.397 96.3807ZM116.926 93.5727V97.2H115.737V91.0909H116.879V92.0852H116.954C117.095 91.7618 117.315 91.5019 117.615 91.3057C117.917 91.1095 118.297 91.0114 118.756 91.0114C119.172 91.0114 119.537 91.0989 119.85 91.2739C120.163 91.4462 120.405 91.7034 120.578 92.0455C120.75 92.3875 120.836 92.8104 120.836 93.3142V97.2H119.647V93.4574C119.647 93.0146 119.532 92.6686 119.301 92.4193C119.07 92.1674 118.753 92.0415 118.35 92.0415C118.075 92.0415 117.829 92.1011 117.615 92.2205C117.402 92.3398 117.234 92.5148 117.109 92.7455C116.987 92.9735 116.926 93.2493 116.926 93.5727ZM122.964 99.4909C122.786 99.4909 122.625 99.4763 122.479 99.4472C122.333 99.4207 122.224 99.3915 122.153 99.3597L122.439 98.3852C122.656 98.4436 122.85 98.4688 123.02 98.4608C123.189 98.4529 123.339 98.3892 123.469 98.2699C123.602 98.1506 123.718 97.9557 123.819 97.6852L123.966 97.2796L121.731 91.0909H123.004L124.551 95.8318H124.615L126.162 91.0909H127.438L124.921 98.0154C124.804 98.3335 124.656 98.6027 124.475 98.8227C124.295 99.0455 124.08 99.2125 123.831 99.3239C123.582 99.4352 123.293 99.4909 122.964 99.4909ZM23.5242 110.2L21.7264 104.091H22.9554L24.1526 108.577H24.2122L25.4134 104.091H26.6423L27.8355 108.557H27.8952L29.0844 104.091H30.3134L28.5196 110.2H27.3065L26.0656 105.789H25.9742L24.7333 110.2H23.5242ZM33.2198 110.335C32.8326 110.335 32.4826 110.264 32.1698 110.12C31.8569 109.975 31.609 109.764 31.426 109.488C31.2457 109.212 31.1556 108.874 31.1556 108.474C31.1556 108.129 31.2218 107.845 31.3544 107.623C31.487 107.4 31.666 107.224 31.8914 107.094C32.1167 106.964 32.3686 106.866 32.647 106.799C32.9254 106.733 33.2092 106.683 33.4982 106.648C33.8641 106.606 34.161 106.571 34.3891 106.545C34.6171 106.516 34.7828 106.469 34.8862 106.406C34.9896 106.342 35.0414 106.239 35.0414 106.095V106.068C35.0414 105.72 34.9432 105.451 34.747 105.26C34.5535 105.069 34.2645 104.974 33.88 104.974C33.4796 104.974 33.1641 105.063 32.9334 105.24C32.7054 105.415 32.5476 105.61 32.4601 105.825L31.3425 105.57C31.4751 105.199 31.6686 104.9 31.9232 104.672C32.1804 104.441 32.476 104.274 32.8101 104.17C33.1442 104.064 33.4955 104.011 33.8641 104.011C34.108 104.011 34.3665 104.041 34.6396 104.099C34.9154 104.155 35.1726 104.258 35.4112 104.409C35.6525 104.56 35.8501 104.776 36.0039 105.057C36.1576 105.336 36.2345 105.698 36.2345 106.143V110.2H35.0732V109.365H35.0254C34.9485 109.519 34.8332 109.67 34.6794 109.818C34.5256 109.967 34.3281 110.09 34.0868 110.188C33.8455 110.286 33.5565 110.335 33.2198 110.335ZM33.4783 109.381C33.8071 109.381 34.0881 109.316 34.3215 109.186C34.5574 109.056 34.7364 108.886 34.8584 108.677C34.983 108.465 35.0453 108.238 35.0453 107.997V107.209C35.0029 107.252 34.9207 107.291 34.7987 107.328C34.6794 107.363 34.5429 107.393 34.3891 107.42C34.2353 107.444 34.0855 107.466 33.9396 107.488C33.7938 107.506 33.6718 107.522 33.5737 107.535C33.3431 107.564 33.1323 107.613 32.9414 107.682C32.7531 107.751 32.602 107.851 32.4879 107.981C32.3766 108.108 32.3209 108.278 32.3209 108.49C32.3209 108.784 32.4296 109.007 32.647 109.158C32.8645 109.306 33.1415 109.381 33.4783 109.381ZM39.0077 102.055V110.2H37.8185V102.055H39.0077ZM41.7967 102.055V110.2H40.6075V102.055H41.7967ZM46.0296 110.323C45.4277 110.323 44.9093 110.195 44.4744 109.938C44.0422 109.678 43.7082 109.313 43.4722 108.844C43.2388 108.372 43.1222 107.819 43.1222 107.185C43.1222 106.559 43.2388 106.008 43.4722 105.531C43.7082 105.053 44.0369 104.681 44.4585 104.413C44.8828 104.145 45.3786 104.011 45.946 104.011C46.2907 104.011 46.6248 104.068 46.9483 104.182C47.2718 104.296 47.5621 104.475 47.8193 104.719C48.0765 104.963 48.2794 105.28 48.4279 105.67C48.5763 106.057 48.6506 106.528 48.6506 107.082V107.503H43.7943V106.613H47.4852C47.4852 106.3 47.4216 106.023 47.2943 105.781C47.1671 105.537 46.9881 105.345 46.7574 105.205C46.5294 105.064 46.2616 104.994 45.954 104.994C45.6199 104.994 45.3282 105.076 45.079 105.24C44.8324 105.402 44.6415 105.614 44.5063 105.877C44.3737 106.137 44.3074 106.419 44.3074 106.724V107.42C44.3074 107.828 44.379 108.176 44.5222 108.462C44.668 108.748 44.8708 108.967 45.1307 109.118C45.3905 109.267 45.6941 109.341 46.0415 109.341C46.2669 109.341 46.4724 109.309 46.658 109.245C46.8436 109.179 47.004 109.081 47.1392 108.951C47.2744 108.821 47.3779 108.661 47.4494 108.47L48.575 108.673C48.4849 109.004 48.3231 109.295 48.0898 109.544C47.8591 109.79 47.5688 109.983 47.2188 110.12C46.8714 110.256 46.475 110.323 46.0296 110.323ZM52.8217 104.091V105.045H49.4848V104.091H52.8217ZM50.3797 102.627H51.5689V108.406C51.5689 108.637 51.6034 108.811 51.6723 108.927C51.7413 109.041 51.8301 109.12 51.9388 109.162C52.0502 109.202 52.1708 109.222 52.3007 109.222C52.3962 109.222 52.4797 109.215 52.5513 109.202C52.6229 109.188 52.6786 109.178 52.7183 109.17L52.9331 110.152C52.8642 110.179 52.7661 110.205 52.6388 110.232C52.5115 110.261 52.3524 110.277 52.1615 110.28C51.8486 110.285 51.557 110.229 51.2865 110.113C51.0161 109.996 50.7973 109.816 50.6303 109.572C50.4632 109.328 50.3797 109.021 50.3797 108.653V102.627ZM59.3882 110.319C58.895 110.319 58.4549 110.193 58.0678 109.941C57.6833 109.687 57.381 109.325 57.161 108.856C56.9435 108.384 56.8348 107.818 56.8348 107.157C56.8348 106.497 56.9449 105.932 57.1649 105.463C57.3877 104.994 57.6926 104.634 58.0797 104.385C58.4668 104.136 58.9056 104.011 59.3962 104.011C59.7753 104.011 60.0803 104.075 60.311 104.202C60.5443 104.327 60.7246 104.473 60.8519 104.64C60.9818 104.807 61.0825 104.954 61.1541 105.081H61.2257V102.055H62.4149V110.2H61.2536V109.249H61.1541C61.0825 109.379 60.9791 109.528 60.8439 109.695C60.7113 109.862 60.5284 110.008 60.295 110.132C60.0617 110.257 59.7594 110.319 59.3882 110.319ZM59.6507 109.305C59.9928 109.305 60.2818 109.215 60.5178 109.035C60.7564 108.852 60.9367 108.598 61.0587 108.275C61.1833 107.952 61.2456 107.575 61.2456 107.145C61.2456 106.721 61.1846 106.35 61.0627 106.032C60.9407 105.714 60.7617 105.466 60.5257 105.288C60.2897 105.11 59.9981 105.022 59.6507 105.022C59.2928 105.022 58.9945 105.114 58.7558 105.3C58.5172 105.486 58.3369 105.739 58.2149 106.06C58.0956 106.381 58.036 106.742 58.036 107.145C58.036 107.554 58.0969 107.921 58.2189 108.247C58.3409 108.573 58.5212 108.832 58.7598 109.023C59.0011 109.211 59.2981 109.305 59.6507 109.305ZM66.6855 110.323C66.1128 110.323 65.613 110.192 65.1861 109.93C64.7592 109.667 64.4278 109.3 64.1918 108.828C63.9558 108.356 63.8378 107.804 63.8378 107.173C63.8378 106.54 63.9558 105.985 64.1918 105.511C64.4278 105.036 64.7592 104.668 65.1861 104.405C65.613 104.143 66.1128 104.011 66.6855 104.011C67.2583 104.011 67.7581 104.143 68.185 104.405C68.6119 104.668 68.9433 105.036 69.1793 105.511C69.4153 105.985 69.5333 106.54 69.5333 107.173C69.5333 107.804 69.4153 108.356 69.1793 108.828C68.9433 109.3 68.6119 109.667 68.185 109.93C67.7581 110.192 67.2583 110.323 66.6855 110.323ZM66.6895 109.325C67.0607 109.325 67.3683 109.227 67.6122 109.031C67.8562 108.834 68.0365 108.573 68.1531 108.247C68.2725 107.921 68.3321 107.562 68.3321 107.169C68.3321 106.78 68.2725 106.422 68.1531 106.095C68.0365 105.767 67.8562 105.503 67.6122 105.304C67.3683 105.105 67.0607 105.006 66.6895 105.006C66.3156 105.006 66.0054 105.105 65.7588 105.304C65.5149 105.503 65.3333 105.767 65.2139 106.095C65.0973 106.422 65.0389 106.78 65.0389 107.169C65.0389 107.562 65.0973 107.921 65.2139 108.247C65.3333 108.573 65.5149 108.834 65.7588 109.031C66.0054 109.227 66.3156 109.325 66.6895 109.325ZM70.8607 110.2V104.091H72.0101V105.061H72.0737C72.1851 104.733 72.3813 104.474 72.6624 104.286C72.9461 104.095 73.2669 103.999 73.6249 103.999C73.6991 103.999 73.7866 104.002 73.8874 104.007C73.9908 104.013 74.0717 104.019 74.13 104.027V105.165C74.0823 105.152 73.9974 105.137 73.8754 105.121C73.7535 105.102 73.6315 105.093 73.5095 105.093C73.2285 105.093 72.9779 105.153 72.7578 105.272C72.5404 105.389 72.3681 105.552 72.2408 105.761C72.1135 105.968 72.0499 106.204 72.0499 106.469V110.2H70.8607ZM75.1591 110.2V104.091H76.3006V105.085H76.3761C76.5034 104.748 76.7116 104.486 77.0006 104.298C77.2896 104.107 77.6356 104.011 78.0386 104.011C78.447 104.011 78.789 104.107 79.0648 104.298C79.3432 104.489 79.5487 104.751 79.6813 105.085H79.7449C79.8907 104.759 80.1227 104.499 80.4409 104.306C80.7591 104.109 81.1383 104.011 81.5784 104.011C82.1326 104.011 82.5847 104.185 82.9347 104.532C83.2873 104.88 83.4636 105.403 83.4636 106.103V110.2H82.2744V106.215C82.2744 105.801 82.1618 105.502 81.9364 105.316C81.711 105.13 81.4419 105.038 81.129 105.038C80.7419 105.038 80.4409 105.157 80.2261 105.395C80.0114 105.631 79.904 105.935 79.904 106.306V110.2H78.7188V106.139C78.7188 105.808 78.6154 105.541 78.4085 105.34C78.2017 105.138 77.9326 105.038 77.6011 105.038C77.3758 105.038 77.1676 105.097 76.9767 105.216C76.7885 105.333 76.636 105.496 76.5193 105.706C76.4053 105.915 76.3483 106.158 76.3483 106.434V110.2H75.1591ZM86.8354 110.335C86.4483 110.335 86.0983 110.264 85.7854 110.12C85.4725 109.975 85.2246 109.764 85.0416 109.488C84.8613 109.212 84.7712 108.874 84.7712 108.474C84.7712 108.129 84.8375 107.845 84.97 107.623C85.1026 107.4 85.2816 107.224 85.507 107.094C85.7324 106.964 85.9842 106.866 86.2627 106.799C86.5411 106.733 86.8248 106.683 87.1138 106.648C87.4797 106.606 87.7767 106.571 88.0047 106.545C88.2327 106.516 88.3985 106.469 88.5019 106.406C88.6053 106.342 88.657 106.239 88.657 106.095V106.068C88.657 105.72 88.5589 105.451 88.3627 105.26C88.1691 105.069 87.8801 104.974 87.4956 104.974C87.0952 104.974 86.7797 105.063 86.549 105.24C86.321 105.415 86.1632 105.61 86.0757 105.825L84.9581 105.57C85.0907 105.199 85.2842 104.9 85.5388 104.672C85.796 104.441 86.0916 104.274 86.4257 104.17C86.7598 104.064 87.1111 104.011 87.4797 104.011C87.7236 104.011 87.9822 104.041 88.2553 104.099C88.531 104.155 88.7882 104.258 89.0269 104.409C89.2681 104.56 89.4657 104.776 89.6195 105.057C89.7733 105.336 89.8502 105.698 89.8502 106.143V110.2H88.6888V109.365H88.6411C88.5642 109.519 88.4488 109.67 88.295 109.818C88.1413 109.967 87.9437 110.09 87.7024 110.188C87.4611 110.286 87.1721 110.335 86.8354 110.335ZM87.0939 109.381C87.4227 109.381 87.7038 109.316 87.9371 109.186C88.1731 109.056 88.352 108.886 88.474 108.677C88.5986 108.465 88.661 108.238 88.661 107.997V107.209C88.6185 107.252 88.5363 107.291 88.4144 107.328C88.295 107.363 88.1585 107.393 88.0047 107.42C87.8509 107.444 87.7011 107.466 87.5553 107.488C87.4094 107.506 87.2875 107.522 87.1894 107.535C86.9587 107.564 86.7479 107.613 86.557 107.682C86.3687 107.751 86.2176 107.851 86.1036 107.981C85.9922 108.108 85.9365 108.278 85.9365 108.49C85.9365 108.784 86.0452 109.007 86.2627 109.158C86.4801 109.306 86.7572 109.381 87.0939 109.381ZM92.6233 106.573V110.2H91.4341V104.091H92.5756V105.085H92.6512C92.7917 104.762 93.0118 104.502 93.3114 104.306C93.6137 104.109 93.9941 104.011 94.4529 104.011C94.8691 104.011 95.2337 104.099 95.5466 104.274C95.8595 104.446 96.1021 104.703 96.2744 105.045C96.4468 105.388 96.533 105.81 96.533 106.314V110.2H95.3438V106.457C95.3438 106.015 95.2284 105.669 94.9977 105.419C94.7671 105.167 94.4502 105.041 94.0472 105.041C93.7714 105.041 93.5262 105.101 93.3114 105.22C93.0993 105.34 92.9309 105.515 92.8063 105.745C92.6843 105.973 92.6233 106.249 92.6233 106.573ZM100.98 104.091V105.045H97.6426V104.091H100.98ZM98.5375 102.627H99.7267V108.406C99.7267 108.637 99.7612 108.811 99.8301 108.927C99.8991 109.041 99.9879 109.12 100.097 109.162C100.208 109.202 100.329 109.222 100.459 109.222C100.554 109.222 100.638 109.215 100.709 109.202C100.781 109.188 100.836 109.178 100.876 109.17L101.091 110.152C101.022 110.179 100.924 110.205 100.797 110.232C100.669 110.261 100.51 110.277 100.319 110.28C100.006 110.285 99.7148 110.229 99.4443 110.113C99.1739 109.996 98.9551 109.816 98.7881 109.572C98.621 109.328 98.5375 109.021 98.5375 108.653V102.627ZM108.166 104.091V105.045H104.714V104.091H108.166ZM105.661 110.2V103.383C105.661 103.001 105.744 102.684 105.911 102.432C106.078 102.178 106.3 101.988 106.576 101.864C106.851 101.736 107.151 101.673 107.474 101.673C107.713 101.673 107.917 101.693 108.087 101.732C108.257 101.77 108.383 101.804 108.465 101.836L108.186 102.798C108.131 102.782 108.059 102.764 107.972 102.743C107.884 102.719 107.778 102.707 107.653 102.707C107.364 102.707 107.158 102.778 107.033 102.922C106.911 103.065 106.85 103.272 106.85 103.542V110.2H105.661ZM111.726 110.323C111.153 110.323 110.654 110.192 110.227 109.93C109.8 109.667 109.468 109.3 109.232 108.828C108.996 108.356 108.878 107.804 108.878 107.173C108.878 106.54 108.996 105.985 109.232 105.511C109.468 105.036 109.8 104.668 110.227 104.405C110.654 104.143 111.153 104.011 111.726 104.011C112.299 104.011 112.799 104.143 113.226 104.405C113.652 104.668 113.984 105.036 114.22 105.511C114.456 105.985 114.574 106.54 114.574 107.173C114.574 107.804 114.456 108.356 114.22 108.828C113.984 109.3 113.652 109.667 113.226 109.93C112.799 110.192 112.299 110.323 111.726 110.323ZM111.73 109.325C112.101 109.325 112.409 109.227 112.653 109.031C112.897 108.834 113.077 108.573 113.194 108.247C113.313 107.921 113.373 107.562 113.373 107.169C113.373 106.78 113.313 106.422 113.194 106.095C113.077 105.767 112.897 105.503 112.653 105.304C112.409 105.105 112.101 105.006 111.73 105.006C111.356 105.006 111.046 105.105 110.799 105.304C110.556 105.503 110.374 105.767 110.255 106.095C110.138 106.422 110.08 106.78 110.08 107.169C110.08 107.562 110.138 107.921 110.255 108.247C110.374 108.573 110.556 108.834 110.799 109.031C111.046 109.227 111.356 109.325 111.73 109.325ZM115.901 110.2V104.091H117.051V105.061H117.114C117.226 104.733 117.422 104.474 117.703 104.286C117.987 104.095 118.308 103.999 118.665 103.999C118.74 103.999 118.827 104.002 118.928 104.007C119.031 104.013 119.112 104.019 119.171 104.027V105.165C119.123 105.152 119.038 105.137 118.916 105.121C118.794 105.102 118.672 105.093 118.55 105.093C118.269 105.093 118.019 105.153 117.798 105.272C117.581 105.389 117.409 105.552 117.281 105.761C117.154 105.968 117.09 106.204 117.09 106.469V110.2H115.901Z" fill="#19191A"/>
<path d="M22.2952 160.2V152.055H23.4844V155.081H23.556C23.6249 154.954 23.7244 154.807 23.8543 154.64C23.9842 154.473 24.1645 154.327 24.3952 154.202C24.6259 154.075 24.9308 154.011 25.31 154.011C25.8031 154.011 26.2433 154.136 26.6304 154.385C27.0175 154.634 27.3211 154.994 27.5412 155.463C27.7639 155.932 27.8753 156.497 27.8753 157.157C27.8753 157.818 27.7653 158.384 27.5452 158.856C27.3251 159.325 27.0228 159.687 26.6384 159.941C26.2539 160.193 25.8151 160.319 25.3219 160.319C24.9507 160.319 24.6471 160.257 24.4111 160.132C24.1778 160.008 23.9948 159.862 23.8622 159.695C23.7297 159.528 23.6276 159.379 23.556 159.249H23.4565V160.2H22.2952ZM23.4605 157.145C23.4605 157.575 23.5228 157.952 23.6475 158.275C23.7721 158.598 23.9524 158.852 24.1884 159.035C24.4244 159.215 24.7134 159.305 25.0554 159.305C25.4107 159.305 25.7077 159.211 25.9463 159.023C26.185 158.832 26.3653 158.573 26.4872 158.247C26.6119 157.921 26.6742 157.554 26.6742 157.145C26.6742 156.742 26.6132 156.381 26.4912 156.06C26.3719 155.739 26.1916 155.486 25.9503 155.3C25.7117 155.114 25.4134 155.022 25.0554 155.022C24.7107 155.022 24.419 155.11 24.1804 155.288C23.9444 155.466 23.7655 155.714 23.6435 156.032C23.5215 156.35 23.4605 156.721 23.4605 157.145ZM31.8436 160.323C31.2417 160.323 30.7234 160.195 30.2885 159.938C29.8563 159.678 29.5222 159.313 29.2862 158.844C29.0529 158.372 28.9362 157.819 28.9362 157.185C28.9362 156.559 29.0529 156.008 29.2862 155.531C29.5222 155.053 29.851 154.681 30.2726 154.413C30.6968 154.145 31.1927 154.011 31.7601 154.011C32.1048 154.011 32.4389 154.068 32.7624 154.182C33.0859 154.296 33.3762 154.475 33.6334 154.719C33.8906 154.963 34.0934 155.28 34.2419 155.67C34.3904 156.057 34.4646 156.528 34.4646 157.082V157.503H29.6084V156.613H33.2993C33.2993 156.3 33.2357 156.023 33.1084 155.781C32.9811 155.537 32.8021 155.345 32.5715 155.205C32.3434 155.064 32.0756 154.994 31.7681 154.994C31.434 154.994 31.1423 155.076 30.8931 155.24C30.6465 155.402 30.4556 155.614 30.3203 155.877C30.1878 156.137 30.1215 156.419 30.1215 156.724V157.42C30.1215 157.828 30.1931 158.176 30.3362 158.462C30.4821 158.748 30.6849 158.967 30.9448 159.118C31.2046 159.267 31.5082 159.341 31.8556 159.341C32.0809 159.341 32.2864 159.309 32.472 159.245C32.6576 159.179 32.8181 159.081 32.9533 158.951C33.0885 158.821 33.1919 158.661 33.2635 158.47L34.3891 158.673C34.2989 159.004 34.1372 159.295 33.9038 159.544C33.6732 159.79 33.3828 159.983 33.0328 160.12C32.6855 160.256 32.2891 160.323 31.8436 160.323ZM38.3574 160.323C37.7661 160.323 37.257 160.189 36.8301 159.922C36.4059 159.651 36.0797 159.279 35.8517 158.804C35.6237 158.329 35.5097 157.786 35.5097 157.173C35.5097 156.553 35.6263 156.005 35.8597 155.531C36.093 155.053 36.4218 154.681 36.846 154.413C37.2703 154.145 37.7701 154.011 38.3455 154.011C38.8095 154.011 39.2231 154.098 39.5864 154.27C39.9496 154.44 40.2426 154.678 40.4654 154.986C40.6907 155.293 40.8246 155.653 40.8671 156.064H39.7097C39.646 155.777 39.5002 155.531 39.2722 155.324C39.0468 155.117 38.7445 155.014 38.3654 155.014C38.0339 155.014 37.7436 155.101 37.4943 155.276C37.2477 155.448 37.0555 155.695 36.9176 156.016C36.7797 156.334 36.7108 156.711 36.7108 157.145C36.7108 157.591 36.7784 157.975 36.9137 158.299C37.0489 158.622 37.2398 158.873 37.4864 159.051C37.7356 159.228 38.0286 159.317 38.3654 159.317C38.5907 159.317 38.7949 159.276 38.9779 159.194C39.1635 159.109 39.3186 158.988 39.4432 158.832C39.5705 158.675 39.6593 158.487 39.7097 158.267H40.8671C40.8246 158.662 40.696 159.015 40.4813 159.325C40.2665 159.635 39.9788 159.879 39.6182 160.057C39.2602 160.234 38.84 160.323 38.3574 160.323ZM44.7121 160.323C44.1394 160.323 43.6396 160.192 43.2127 159.93C42.7858 159.667 42.4543 159.3 42.2183 158.828C41.9824 158.356 41.8644 157.804 41.8644 157.173C41.8644 156.54 41.9824 155.985 42.2183 155.511C42.4543 155.036 42.7858 154.668 43.2127 154.405C43.6396 154.143 44.1394 154.011 44.7121 154.011C45.2848 154.011 45.7846 154.143 46.2115 154.405C46.6384 154.668 46.9699 155.036 47.2058 155.511C47.4418 155.985 47.5598 156.54 47.5598 157.173C47.5598 157.804 47.4418 158.356 47.2058 158.828C46.9699 159.3 46.6384 159.667 46.2115 159.93C45.7846 160.192 45.2848 160.323 44.7121 160.323ZM44.7161 159.325C45.0873 159.325 45.3949 159.227 45.6388 159.031C45.8827 158.834 46.063 158.573 46.1797 158.247C46.299 157.921 46.3587 157.562 46.3587 157.169C46.3587 156.78 46.299 156.422 46.1797 156.095C46.063 155.767 45.8827 155.503 45.6388 155.304C45.3949 155.105 45.0873 155.006 44.7161 155.006C44.3422 155.006 44.032 155.105 43.7854 155.304C43.5414 155.503 43.3598 155.767 43.2405 156.095C43.1238 156.422 43.0655 156.78 43.0655 157.169C43.0655 157.562 43.1238 157.921 43.2405 158.247C43.3598 158.573 43.5414 158.834 43.7854 159.031C44.032 159.227 44.3422 159.325 44.7161 159.325ZM48.8872 160.2V154.091H50.0287V155.085H50.1043C50.2315 154.748 50.4397 154.486 50.7287 154.298C51.0177 154.107 51.3637 154.011 51.7668 154.011C52.1751 154.011 52.5172 154.107 52.7929 154.298C53.0713 154.489 53.2768 154.751 53.4094 155.085H53.473C53.6189 154.759 53.8509 154.499 54.169 154.306C54.4872 154.109 54.8664 154.011 55.3065 154.011C55.8607 154.011 56.3128 154.185 56.6628 154.532C57.0155 154.88 57.1918 155.403 57.1918 156.103V160.2H56.0026V156.215C56.0026 155.801 55.8899 155.502 55.6645 155.316C55.4391 155.13 55.17 155.038 54.8571 155.038C54.47 155.038 54.169 155.157 53.9543 155.395C53.7395 155.631 53.6321 155.935 53.6321 156.306V160.2H52.4469V156.139C52.4469 155.808 52.3435 155.541 52.1367 155.34C51.9298 155.138 51.6607 155.038 51.3293 155.038C51.1039 155.038 50.8958 155.097 50.7048 155.216C50.5166 155.333 50.3641 155.496 50.2475 155.706C50.1334 155.915 50.0764 156.158 50.0764 156.434V160.2H48.8872ZM61.4186 160.323C60.8167 160.323 60.2984 160.195 59.8635 159.938C59.4313 159.678 59.0972 159.313 58.8612 158.844C58.6279 158.372 58.5112 157.819 58.5112 157.185C58.5112 156.559 58.6279 156.008 58.8612 155.531C59.0972 155.053 59.426 154.681 59.8476 154.413C60.2718 154.145 60.7677 154.011 61.3351 154.011C61.6798 154.011 62.0139 154.068 62.3374 154.182C62.6609 154.296 62.9512 154.475 63.2084 154.719C63.4656 154.963 63.6684 155.28 63.8169 155.67C63.9654 156.057 64.0396 156.528 64.0396 157.082V157.503H59.1834V156.613H62.8743C62.8743 156.3 62.8107 156.023 62.6834 155.781C62.5561 155.537 62.3771 155.345 62.1465 155.205C61.9184 155.064 61.6506 154.994 61.3431 154.994C61.009 154.994 60.7173 155.076 60.4681 155.24C60.2215 155.402 60.0306 155.614 59.8953 155.877C59.7628 156.137 59.6965 156.419 59.6965 156.724V157.42C59.6965 157.828 59.7681 158.176 59.9112 158.462C60.0571 158.748 60.2599 158.967 60.5198 159.118C60.7796 159.267 61.0832 159.341 61.4306 159.341C61.6559 159.341 61.8614 159.309 62.047 159.245C62.2326 159.179 62.3931 159.081 62.5283 158.951C62.6635 158.821 62.7669 158.661 62.8385 158.47L63.9641 158.673C63.8739 159.004 63.7122 159.295 63.4789 159.544C63.2482 159.79 62.9578 159.983 62.6078 160.12C62.2605 160.256 61.8641 160.323 61.4186 160.323ZM69.9369 155.582L68.8591 155.773C68.814 155.635 68.7424 155.504 68.6443 155.38C68.5489 155.255 68.419 155.153 68.2546 155.073C68.0902 154.994 67.8847 154.954 67.6381 154.954C67.3013 154.954 67.0203 155.03 66.7949 155.181C66.5695 155.329 66.4568 155.521 66.4568 155.757C66.4568 155.962 66.5324 156.126 66.6835 156.251C66.8347 156.375 67.0786 156.477 67.4154 156.557L68.3858 156.78C68.9479 156.909 69.3669 157.11 69.6426 157.38C69.9184 157.651 70.0563 158.002 70.0563 158.434C70.0563 158.8 69.9502 159.126 69.7381 159.413C69.5286 159.696 69.2356 159.919 68.8591 160.081C68.4852 160.242 68.0517 160.323 67.5585 160.323C66.8744 160.323 66.3163 160.177 65.8841 159.886C65.4519 159.591 65.1868 159.174 65.0887 158.633L66.2381 158.458C66.3097 158.758 66.4568 158.984 66.6796 159.138C66.9023 159.289 67.1926 159.365 67.5506 159.365C67.9404 159.365 68.2519 159.284 68.4852 159.122C68.7186 158.958 68.8352 158.758 68.8352 158.522C68.8352 158.331 68.7637 158.17 68.6205 158.04C68.4799 157.91 68.2638 157.812 67.9722 157.746L66.9381 157.519C66.368 157.389 65.9464 157.183 65.6733 156.899C65.4029 156.615 65.2676 156.256 65.2676 155.821C65.2676 155.46 65.3684 155.145 65.5699 154.874C65.7714 154.604 66.0498 154.393 66.4051 154.242C66.7604 154.088 67.1674 154.011 67.6262 154.011C68.2864 154.011 68.8061 154.155 69.1852 154.441C69.5644 154.725 69.815 155.105 69.9369 155.582ZM76.1057 160.335C75.7186 160.335 75.3686 160.264 75.0557 160.12C74.7428 159.975 74.4949 159.764 74.3119 159.488C74.1316 159.212 74.0415 158.874 74.0415 158.474C74.0415 158.129 74.1078 157.845 74.2404 157.623C74.3729 157.4 74.5519 157.224 74.7773 157.094C75.0027 156.964 75.2546 156.866 75.533 156.799C75.8114 156.733 76.0951 156.683 76.3841 156.648C76.75 156.606 77.047 156.571 77.275 156.545C77.503 156.516 77.6688 156.469 77.7722 156.406C77.8756 156.342 77.9273 156.239 77.9273 156.095V156.068C77.9273 155.72 77.8292 155.451 77.633 155.26C77.4394 155.069 77.1504 154.974 76.7659 154.974C76.3655 154.974 76.05 155.063 75.8193 155.24C75.5913 155.415 75.4335 155.61 75.346 155.825L74.2284 155.57C74.361 155.199 74.5546 154.9 74.8091 154.672C75.0663 154.441 75.3619 154.274 75.696 154.17C76.0301 154.064 76.3815 154.011 76.75 154.011C76.994 154.011 77.2525 154.041 77.5256 154.099C77.8013 154.155 78.0585 154.258 78.2972 154.409C78.5385 154.56 78.736 154.776 78.8898 155.057C79.0436 155.336 79.1205 155.698 79.1205 156.143V160.2H77.9591V159.365H77.9114C77.8345 159.519 77.7191 159.67 77.5654 159.818C77.4116 159.967 77.214 160.09 76.9727 160.188C76.7315 160.286 76.4424 160.335 76.1057 160.335ZM76.3642 159.381C76.693 159.381 76.9741 159.316 77.2074 159.186C77.4434 159.056 77.6224 158.886 77.7443 158.677C77.869 158.465 77.9313 158.238 77.9313 157.997V157.209C77.8888 157.252 77.8066 157.291 77.6847 157.328C77.5654 157.363 77.4288 157.393 77.275 157.42C77.1212 157.444 76.9714 157.466 76.8256 157.488C76.6797 157.506 76.5578 157.522 76.4597 157.535C76.229 157.564 76.0182 157.613 75.8273 157.682C75.639 157.751 75.4879 157.851 75.3739 157.981C75.2625 158.108 75.2068 158.278 75.2068 158.49C75.2068 158.784 75.3155 159.007 75.533 159.158C75.7504 159.306 76.0275 159.381 76.3642 159.381ZM83.2777 160.323C82.6864 160.323 82.1773 160.189 81.7504 159.922C81.3262 159.651 81.0001 159.279 80.772 158.804C80.544 158.329 80.43 157.786 80.43 157.173C80.43 156.553 80.5467 156.005 80.78 155.531C81.0133 155.053 81.3421 154.681 81.7663 154.413C82.1906 154.145 82.6904 154.011 83.2658 154.011C83.7298 154.011 84.1434 154.098 84.5067 154.27C84.8699 154.44 85.1629 154.678 85.3857 154.986C85.611 155.293 85.7449 155.653 85.7874 156.064H84.63C84.5663 155.777 84.4205 155.531 84.1925 155.324C83.9671 155.117 83.6648 155.014 83.2857 155.014C82.9542 155.014 82.6639 155.101 82.4146 155.276C82.1681 155.448 81.9758 155.695 81.8379 156.016C81.7001 156.334 81.6311 156.711 81.6311 157.145C81.6311 157.591 81.6987 157.975 81.834 158.299C81.9692 158.622 82.1601 158.873 82.4067 159.051C82.6559 159.228 82.9489 159.317 83.2857 159.317C83.511 159.317 83.7152 159.276 83.8982 159.194C84.0838 159.109 84.2389 158.988 84.3635 158.832C84.4908 158.675 84.5796 158.487 84.63 158.267H85.7874C85.7449 158.662 85.6163 159.015 85.4016 159.325C85.1868 159.635 84.8991 159.879 84.5385 160.057C84.1806 160.234 83.7603 160.323 83.2777 160.323ZM89.9108 154.091V155.045H86.5739V154.091H89.9108ZM87.4688 152.627H88.658V158.406C88.658 158.637 88.6924 158.811 88.7614 158.927C88.8303 159.041 88.9191 159.12 89.0279 159.162C89.1392 159.202 89.2599 159.222 89.3898 159.222C89.4852 159.222 89.5688 159.215 89.6404 159.202C89.7119 159.188 89.7676 159.178 89.8074 159.17L90.0222 160.152C89.9532 160.179 89.8551 160.205 89.7279 160.232C89.6006 160.261 89.4415 160.277 89.2506 160.28C88.9377 160.285 88.646 160.229 88.3756 160.113C88.1051 159.996 87.8864 159.816 87.7193 159.572C87.5523 159.328 87.4688 159.021 87.4688 158.653V152.627ZM91.2263 160.2V154.091H92.4155V160.2H91.2263ZM91.8269 153.148C91.62 153.148 91.4424 153.079 91.2939 152.941C91.1481 152.801 91.0752 152.634 91.0752 152.44C91.0752 152.244 91.1481 152.077 91.2939 151.939C91.4424 151.799 91.62 151.728 91.8269 151.728C92.0337 151.728 92.21 151.799 92.3558 151.939C92.5043 152.077 92.5786 152.244 92.5786 152.44C92.5786 152.634 92.5043 152.801 92.3558 152.941C92.21 153.079 92.0337 153.148 91.8269 153.148ZM99.2415 154.091L97.0261 160.2H95.7534L93.5341 154.091H94.8108L96.358 158.792H96.4216L97.9648 154.091H99.2415ZM102.784 160.323C102.182 160.323 101.664 160.195 101.229 159.938C100.797 159.678 100.463 159.313 100.227 158.844C99.9935 158.372 99.8769 157.819 99.8769 157.185C99.8769 156.559 99.9935 156.008 100.227 155.531C100.463 155.053 100.792 154.681 101.213 154.413C101.637 154.145 102.133 154.011 102.701 154.011C103.045 154.011 103.38 154.068 103.703 154.182C104.026 154.296 104.317 154.475 104.574 154.719C104.831 154.963 105.034 155.28 105.183 155.67C105.331 156.057 105.405 156.528 105.405 157.082V157.503H100.549V156.613H104.24C104.24 156.3 104.176 156.023 104.049 155.781C103.922 155.537 103.743 155.345 103.512 155.205C103.284 155.064 103.016 154.994 102.709 154.994C102.375 154.994 102.083 155.076 101.834 155.24C101.587 155.402 101.396 155.614 101.261 155.877C101.128 156.137 101.062 156.419 101.062 156.724V157.42C101.062 157.828 101.134 158.176 101.277 158.462C101.423 158.748 101.626 158.967 101.885 159.118C102.145 159.267 102.449 159.341 102.796 159.341C103.022 159.341 103.227 159.309 103.413 159.245C103.598 159.179 103.759 159.081 103.894 158.951C104.029 158.821 104.133 158.661 104.204 158.47L105.33 158.673C105.24 159.004 105.078 159.295 104.844 159.544C104.614 159.79 104.323 159.983 103.973 160.12C103.626 160.256 103.23 160.323 102.784 160.323Z" fill="#19191A"/>
<defs>
<filter id="filter0_dd_1_235" x="0.400391" y="0.8" width="203.7" height="185.5" filterUnits="userSpaceOnUse" color-interpolation-filters="sRGB">
<feFlood flood-opacity="0" result="BackgroundImageFix"/>
<feColorMatrix in="SourceAlpha" type="matrix" values="0 0 0 0 0 0 0 0 0 0 0 0 0 0 0 0 0 0 127 0" result="hardAlpha"/>
<feOffset dy="0.7"/>
<feGaussianBlur stdDeviation="0.35"/>
<feComposite in2="hardAlpha" operator="out"/>
<feColorMatrix type="matrix" values="0 0 0 0 0 0 0 0 0 0 0 0 0 0 0 0 0 0 0.04 0"/>
<feBlend mode="normal" in2="BackgroundImageFix" result="effect1_dropShadow_1_235"/>
<feColorMatrix in="SourceAlpha" type="matrix" values="0 0 0 0 0 0 0 0 0 0 0 0 0 0 0 0 0 0 127 0" result="hardAlpha"/>
<feOffset dy="2.8"/>
<feGaussianBlur stdDeviation="3.5"/>
<feComposite in2="hardAlpha" operator="out"/>
<feColorMatrix type="matrix" values="0 0 0 0 0 0 0 0 0 0 0 0 0 0 0 0 0 0 0.04 0"/>
<feBlend mode="normal" in2="effect1_dropShadow_1_235" result="effect2_dropShadow_1_235"/>
<feBlend mode="normal" in="SourceGraphic" in2="effect2_dropShadow_1_235" result="shape"/>
</filter>
</defs>
</svg>
