<svg width="204" height="187" viewBox="0 0 204 187" fill="none" xmlns="http://www.w3.org/2000/svg">
<g filter="url(#filter0_dd_1_249)">
<rect x="7" y="5" width="189.7" height="171.5" rx="8.4" fill="white" shape-rendering="crispEdges"/>
<rect x="7" y="5" width="189.7" height="171.5" rx="8.4" fill="url(#paint0_linear_1_249)" fill-opacity="0.2" shape-rendering="crispEdges"/>
<path d="M24.1123 75L21.2884 64.8182H22.9042L24.8878 72.7031H24.9823L27.0455 64.8182H28.6464L30.7096 72.7081H30.804L32.7827 64.8182H34.4035L31.5746 75H30.0285L27.8857 67.3736H27.8062L25.6634 75H24.1123ZM38.2241 75.1541C37.4718 75.1541 36.8238 74.9934 36.2802 74.6719C35.74 74.3471 35.3224 73.8913 35.0274 73.3047C34.7357 72.7147 34.5899 72.0237 34.5899 71.2315C34.5899 70.4493 34.7357 69.7599 35.0274 69.1634C35.3224 68.5668 35.7334 68.1011 36.2604 67.7663C36.7907 67.4316 37.4105 67.2642 38.1197 67.2642C38.5506 67.2642 38.9682 67.3355 39.3726 67.478C39.7769 67.6205 40.1399 67.8442 40.4614 68.1491C40.7829 68.4541 41.0364 68.8501 41.222 69.3374C41.4076 69.8213 41.5004 70.4096 41.5004 71.1023V71.6293H35.4301V70.5156H40.0437C40.0437 70.1245 39.9642 69.7782 39.8051 69.4766C39.646 69.1716 39.4223 68.9313 39.1339 68.7557C38.8489 68.58 38.5141 68.4922 38.1297 68.4922C37.7121 68.4922 37.3475 68.5949 37.0359 68.8004C36.7277 69.0026 36.4891 69.2678 36.32 69.5959C36.1543 69.9207 36.0714 70.2737 36.0714 70.6548V71.5249C36.0714 72.0353 36.1609 72.4695 36.3399 72.8274C36.5222 73.1854 36.7757 73.4588 37.1006 73.6477C37.4254 73.8333 37.8049 73.9261 38.2391 73.9261C38.5208 73.9261 38.7776 73.8864 39.0096 73.8068C39.2417 73.724 39.4422 73.6013 39.6112 73.4389C39.7802 73.2765 39.9095 73.076 39.999 72.8374L41.406 73.0909C41.2933 73.5052 41.0911 73.8681 40.7994 74.1797C40.5111 74.4879 40.1481 74.7282 39.7106 74.9006C39.2765 75.0696 38.781 75.1541 38.2241 75.1541ZM44.4274 64.8182V65.7727C44.4274 66.0545 44.3744 66.3511 44.2683 66.6626C44.1656 66.9709 44.0198 67.2675 43.8308 67.5526C43.6419 67.8376 43.4199 68.0829 43.1647 68.2884L42.4289 67.7614C42.6244 67.4763 42.7934 67.1731 42.936 66.8516C43.0818 66.5301 43.1547 66.1754 43.1547 65.7876V64.8182H44.4274ZM47.4253 64.8182V75H45.9388V64.8182H47.4253ZM50.9116 64.8182V75H49.4251V64.8182H50.9116ZM56.7359 75V64.8182H58.2224V68.6016H58.3119C58.398 68.4425 58.5223 68.2585 58.6847 68.0497C58.8471 67.8409 59.0725 67.6586 59.3609 67.5028C59.6492 67.3438 60.0304 67.2642 60.5043 67.2642C61.1208 67.2642 61.671 67.42 62.1549 67.7315C62.6388 68.0431 63.0183 68.4922 63.2934 69.0788C63.5718 69.6655 63.711 70.3714 63.711 71.1967C63.711 72.022 63.5735 72.7296 63.2984 73.3196C63.0233 73.9062 62.6454 74.3587 62.1648 74.6768C61.6842 74.9917 61.1357 75.1491 60.5192 75.1491C60.0552 75.1491 59.6757 75.0713 59.3807 74.9155C59.0891 74.7597 58.8604 74.5774 58.6947 74.3686C58.5289 74.1598 58.4013 73.9742 58.3119 73.8118H58.1876V75H56.7359ZM58.1925 71.1818C58.1925 71.7187 58.2704 72.1894 58.4262 72.5938C58.582 72.9981 58.8074 73.3146 59.1023 73.5433C59.3973 73.7687 59.7586 73.8814 60.1861 73.8814C60.6303 73.8814 61.0015 73.7637 61.2998 73.5284C61.5981 73.2898 61.8235 72.9666 61.9759 72.5589C62.1317 72.1513 62.2096 71.6922 62.2096 71.1818C62.2096 70.678 62.1333 70.2256 61.9809 69.8246C61.8317 69.4235 61.6064 69.107 61.3047 68.875C61.0065 68.643 60.6336 68.527 60.1861 68.527C59.7553 68.527 59.3907 68.638 59.0924 68.8601C58.7974 69.0821 58.5737 69.392 58.4212 69.7898C58.2688 70.1875 58.1925 70.6515 58.1925 71.1818ZM68.6714 75.1541C67.919 75.1541 67.2711 74.9934 66.7275 74.6719C66.1873 74.3471 65.7697 73.8913 65.4747 73.3047C65.183 72.7147 65.0372 72.0237 65.0372 71.2315C65.0372 70.4493 65.183 69.7599 65.4747 69.1634C65.7697 68.5668 66.1806 68.1011 66.7076 67.7663C67.2379 67.4316 67.8577 67.2642 68.567 67.2642C68.9979 67.2642 69.4155 67.3355 69.8198 67.478C70.2242 67.6205 70.5871 67.8442 70.9086 68.1491C71.2301 68.4541 71.4837 68.8501 71.6693 69.3374C71.8549 69.8213 71.9477 70.4096 71.9477 71.1023V71.6293H65.8774V70.5156H70.491C70.491 70.1245 70.4115 69.7782 70.2524 69.4766C70.0933 69.1716 69.8696 68.9313 69.5812 68.7557C69.2962 68.58 68.9614 68.4922 68.5769 68.4922C68.1593 68.4922 67.7947 68.5949 67.4832 68.8004C67.175 69.0026 66.9363 69.2678 66.7673 69.5959C66.6016 69.9207 66.5187 70.2737 66.5187 70.6548V71.5249C66.5187 72.0353 66.6082 72.4695 66.7872 72.8274C66.9695 73.1854 67.223 73.4588 67.5478 73.6477C67.8726 73.8333 68.2521 73.9261 68.6863 73.9261C68.968 73.9261 69.2249 73.8864 69.4569 73.8068C69.6889 73.724 69.8894 73.6013 70.0585 73.4389C70.2275 73.2765 70.3568 73.076 70.4463 72.8374L71.8532 73.0909C71.7405 73.5052 71.5384 73.8681 71.2467 74.1797C70.9583 74.4879 70.5954 74.7282 70.1579 74.9006C69.7237 75.0696 69.2282 75.1541 68.6714 75.1541ZM83.0244 69.228L81.6771 69.4666C81.6207 69.2943 81.5313 69.1302 81.4086 68.9744C81.2893 68.8187 81.1269 68.6911 80.9214 68.5916C80.7159 68.4922 80.459 68.4425 80.1508 68.4425C79.7299 68.4425 79.3786 68.5369 79.0968 68.7259C78.8151 68.9115 78.6742 69.1518 78.6742 69.4467C78.6742 69.7019 78.7687 69.9074 78.9576 70.0632C79.1465 70.219 79.4515 70.3466 79.8724 70.446L81.0855 70.7244C81.7881 70.8868 82.3118 71.1371 82.6565 71.4751C83.0012 71.8132 83.1735 72.2524 83.1735 72.7926C83.1735 73.25 83.041 73.6577 82.7758 74.0156C82.514 74.3703 82.1477 74.6487 81.6771 74.8509C81.2098 75.053 80.6679 75.1541 80.0514 75.1541C79.1963 75.1541 78.4986 74.9718 77.9583 74.6072C77.4181 74.2393 77.0866 73.7173 76.964 73.0412L78.4008 72.8224C78.4903 73.197 78.6742 73.4804 78.9527 73.6726C79.2311 73.8615 79.594 73.956 80.0414 73.956C80.5286 73.956 80.9181 73.8549 81.2098 73.6527C81.5014 73.4472 81.6473 73.197 81.6473 72.902C81.6473 72.6634 81.5578 72.4628 81.3788 72.3004C81.2031 72.138 80.933 72.0154 80.5684 71.9325L79.2758 71.6491C78.5632 71.4867 78.0362 71.2282 77.6948 70.8736C77.3568 70.5189 77.1877 70.0698 77.1877 69.5263C77.1877 69.0755 77.3137 68.6811 77.5656 68.343C77.8175 68.005 78.1655 67.7415 78.6096 67.5526C79.0537 67.3603 79.5625 67.2642 80.1359 67.2642C80.9612 67.2642 81.6108 67.4432 82.0848 67.8011C82.5587 68.1558 82.8719 68.6314 83.0244 69.228ZM88.0991 75.1541C87.3468 75.1541 86.6988 74.9934 86.1552 74.6719C85.615 74.3471 85.1974 73.8913 84.9024 73.3047C84.6107 72.7147 84.4649 72.0237 84.4649 71.2315C84.4649 70.4493 84.6107 69.7599 84.9024 69.1634C85.1974 68.5668 85.6084 68.1011 86.1354 67.7663C86.6657 67.4316 87.2855 67.2642 87.9947 67.2642C88.4256 67.2642 88.8432 67.3355 89.2476 67.478C89.6519 67.6205 90.0149 67.8442 90.3364 68.1491C90.6579 68.4541 90.9114 68.8501 91.097 69.3374C91.2826 69.8213 91.3754 70.4096 91.3754 71.1023V71.6293H85.3051V70.5156H89.9187C89.9187 70.1245 89.8392 69.7782 89.6801 69.4766C89.521 69.1716 89.2973 68.9313 89.0089 68.7557C88.7239 68.58 88.3891 68.4922 88.0047 68.4922C87.5871 68.4922 87.2225 68.5949 86.9109 68.8004C86.6027 69.0026 86.3641 69.2678 86.195 69.5959C86.0293 69.9207 85.9464 70.2737 85.9464 70.6548V71.5249C85.9464 72.0353 86.0359 72.4695 86.2149 72.8274C86.3972 73.1854 86.6507 73.4588 86.9756 73.6477C87.3004 73.8333 87.6799 73.9261 88.1141 73.9261C88.3958 73.9261 88.6526 73.8864 88.8846 73.8068C89.1167 73.724 89.3172 73.6013 89.4862 73.4389C89.6552 73.2765 89.7845 73.076 89.874 72.8374L91.281 73.0909C91.1683 73.5052 90.9661 73.8681 90.6744 74.1797C90.3861 74.4879 90.0231 74.7282 89.5856 74.9006C89.1515 75.0696 88.656 75.1541 88.0991 75.1541ZM94.5112 70.4659V75H93.0247V67.3636H94.4516V68.6065H94.546C94.7217 68.2022 94.9968 67.8774 95.3713 67.6321C95.7492 67.3868 96.2248 67.2642 96.7982 67.2642C97.3185 67.2642 97.7743 67.3736 98.1654 67.5923C98.5565 67.8078 98.8597 68.1293 99.0752 68.5568C99.2906 68.9844 99.3983 69.513 99.3983 70.1428V75H97.9118V70.3217C97.9118 69.7682 97.7676 69.3357 97.4793 69.0241C97.1909 68.7093 96.7949 68.5518 96.2911 68.5518C95.9464 68.5518 95.6398 68.6264 95.3713 68.7756C95.1062 68.9247 94.8957 69.1435 94.7399 69.4318C94.5875 69.7169 94.5112 70.0616 94.5112 70.4659ZM104.251 75.1491C103.634 75.1491 103.084 74.9917 102.6 74.6768C102.119 74.3587 101.742 73.9062 101.467 73.3196C101.195 72.7296 101.059 72.022 101.059 71.1967C101.059 70.3714 101.196 69.6655 101.471 69.0788C101.75 68.4922 102.131 68.0431 102.615 67.7315C103.099 67.42 103.647 67.2642 104.261 67.2642C104.734 67.2642 105.116 67.3438 105.404 67.5028C105.696 67.6586 105.921 67.8409 106.08 68.0497C106.243 68.2585 106.368 68.4425 106.458 68.6016H106.547V64.8182H108.034V75H106.582V73.8118H106.458C106.368 73.9742 106.239 74.1598 106.07 74.3686C105.904 74.5774 105.676 74.7597 105.384 74.9155C105.092 75.0713 104.715 75.1491 104.251 75.1491ZM104.579 73.8814C105.006 73.8814 105.368 73.7687 105.663 73.5433C105.961 73.3146 106.186 72.9981 106.339 72.5938C106.494 72.1894 106.572 71.7187 106.572 71.1818C106.572 70.6515 106.496 70.1875 106.344 69.7898C106.191 69.392 105.967 69.0821 105.672 68.8601C105.377 68.638 105.013 68.527 104.579 68.527C104.131 68.527 103.758 68.643 103.46 68.875C103.162 69.107 102.936 69.4235 102.784 69.8246C102.635 70.2256 102.56 70.678 102.56 71.1818C102.56 71.6922 102.636 72.1513 102.789 72.5589C102.941 72.9666 103.167 73.2898 103.465 73.5284C103.767 73.7637 104.138 73.8814 104.579 73.8814ZM110.156 75V67.3636H111.642V75H110.156ZM110.906 66.1854C110.648 66.1854 110.426 66.0992 110.24 65.9268C110.058 65.7512 109.967 65.5424 109.967 65.3004C109.967 65.0552 110.058 64.8464 110.24 64.674C110.426 64.4983 110.648 64.4105 110.906 64.4105C111.165 64.4105 111.385 64.4983 111.568 64.674C111.753 64.8464 111.846 65.0552 111.846 65.3004C111.846 65.5424 111.753 65.7512 111.568 65.9268C111.385 66.0992 111.165 66.1854 110.906 66.1854ZM115.128 70.4659V75H113.642V67.3636H115.069V68.6065H115.163C115.339 68.2022 115.614 67.8774 115.989 67.6321C116.366 67.3868 116.842 67.2642 117.415 67.2642C117.936 67.2642 118.391 67.3736 118.783 67.5923C119.174 67.8078 119.477 68.1293 119.692 68.5568C119.908 68.9844 120.016 69.513 120.016 70.1428V75H118.529V70.3217C118.529 69.7682 118.385 69.3357 118.096 69.0241C117.808 68.7093 117.412 68.5518 116.908 68.5518C116.564 68.5518 116.257 68.6264 115.989 68.7756C115.723 68.9247 115.513 69.1435 115.357 69.4318C115.205 69.7169 115.128 70.0616 115.128 70.4659ZM125.211 78.0227C124.604 78.0227 124.082 77.9432 123.645 77.7841C123.211 77.625 122.856 77.4145 122.581 77.1527C122.306 76.8909 122.1 76.6042 121.964 76.2926L123.242 75.7656C123.332 75.9115 123.451 76.0656 123.6 76.228C123.752 76.3937 123.958 76.5346 124.217 76.6506C124.478 76.7666 124.815 76.8246 125.226 76.8246C125.789 76.8246 126.255 76.687 126.623 76.4119C126.991 76.1402 127.175 75.706 127.175 75.1094V73.608H127.08C126.991 73.7704 126.861 73.951 126.692 74.1499C126.527 74.3487 126.298 74.5211 126.006 74.6669C125.715 74.8127 125.335 74.8857 124.868 74.8857C124.265 74.8857 123.721 74.7448 123.237 74.4631C122.757 74.178 122.375 73.7588 122.094 73.2053C121.815 72.6484 121.676 71.964 121.676 71.152C121.676 70.34 121.814 69.6439 122.089 69.0639C122.367 68.4839 122.748 68.0398 123.232 67.7315C123.716 67.42 124.265 67.2642 124.878 67.2642C125.352 67.2642 125.734 67.3438 126.026 67.5028C126.318 67.6586 126.545 67.8409 126.707 68.0497C126.873 68.2585 127.001 68.4425 127.09 68.6016H127.199V67.3636H128.656V75.169C128.656 75.8253 128.504 76.3639 128.199 76.7848C127.894 77.2057 127.481 77.5173 126.961 77.7195C126.444 77.9216 125.86 78.0227 125.211 78.0227ZM125.196 73.6527C125.623 73.6527 125.985 73.5533 126.28 73.3544C126.578 73.1522 126.803 72.8639 126.956 72.4893C127.112 72.1115 127.19 71.6591 127.19 71.1321C127.19 70.6184 127.113 70.166 126.961 69.7749C126.808 69.3838 126.585 69.0788 126.29 68.8601C125.995 68.638 125.63 68.527 125.196 68.527C124.748 68.527 124.376 68.643 124.077 68.875C123.779 69.1037 123.554 69.4152 123.401 69.8097C123.252 70.2041 123.177 70.6449 123.177 71.1321C123.177 71.6326 123.254 72.0717 123.406 72.4496C123.559 72.8274 123.784 73.1224 124.082 73.3345C124.384 73.5466 124.755 73.6527 125.196 73.6527ZM23.4859 87.4659V92H21.9994V84.3636H23.4262V85.6065H23.5207C23.6963 85.2022 23.9714 84.8774 24.3459 84.6321C24.7238 84.3868 25.1994 84.2642 25.7728 84.2642C26.2931 84.2642 26.7489 84.3736 27.14 84.5923C27.5311 84.8078 27.8343 85.1293 28.0498 85.5568C28.2652 85.9844 28.3729 86.513 28.3729 87.1428V92H26.8864V87.3217C26.8864 86.7682 26.7422 86.3357 26.4539 86.0241C26.1655 85.7093 25.7695 85.5518 25.2657 85.5518C24.921 85.5518 24.6144 85.6264 24.3459 85.7756C24.0808 85.9247 23.8703 86.1435 23.7145 86.4318C23.5621 86.7169 23.4859 87.0616 23.4859 87.4659ZM33.5832 92.1541C32.8672 92.1541 32.2425 91.9901 31.7089 91.6619C31.1753 91.3338 30.761 90.8748 30.466 90.2848C30.171 89.6948 30.0235 89.0054 30.0235 88.2166C30.0235 87.4245 30.171 86.7318 30.466 86.1385C30.761 85.5452 31.1753 85.0845 31.7089 84.7564C32.2425 84.4283 32.8672 84.2642 33.5832 84.2642C34.2991 84.2642 34.9238 84.4283 35.4574 84.7564C35.9911 85.0845 36.4054 85.5452 36.7003 86.1385C36.9953 86.7318 37.1428 87.4245 37.1428 88.2166C37.1428 89.0054 36.9953 89.6948 36.7003 90.2848C36.4054 90.8748 35.9911 91.3338 35.4574 91.6619C34.9238 91.9901 34.2991 92.1541 33.5832 92.1541ZM33.5881 90.9062C34.0521 90.9062 34.4366 90.7836 34.7415 90.5384C35.0465 90.2931 35.2718 89.9666 35.4177 89.5589C35.5668 89.1513 35.6414 88.7022 35.6414 88.2116C35.6414 87.7244 35.5668 87.277 35.4177 86.8693C35.2718 86.4583 35.0465 86.1286 34.7415 85.88C34.4366 85.6314 34.0521 85.5071 33.5881 85.5071C33.1208 85.5071 32.733 85.6314 32.4248 85.88C32.1199 86.1286 31.8928 86.4583 31.7437 86.8693C31.5978 87.277 31.5249 87.7244 31.5249 88.2116C31.5249 88.7022 31.5978 89.1513 31.7437 89.5589C31.8928 89.9666 32.1199 90.2931 32.4248 90.5384C32.733 90.7836 33.1208 90.9062 33.5881 90.9062ZM42.3667 84.3636V85.5568H38.1956V84.3636H42.3667ZM39.3142 82.5341H40.8007V89.7578C40.8007 90.0462 40.8438 90.2633 40.9299 90.4091C41.0161 90.5516 41.1271 90.6494 41.263 90.7024C41.4022 90.7521 41.553 90.777 41.7154 90.777C41.8348 90.777 41.9392 90.7687 42.0286 90.7521C42.1181 90.7356 42.1877 90.7223 42.2375 90.7124L42.5059 91.9403C42.4197 91.9735 42.2971 92.0066 42.138 92.0398C41.9789 92.0762 41.7801 92.0961 41.5414 92.0994C41.1503 92.1061 40.7857 92.0365 40.4477 91.8906C40.1096 91.7448 39.8362 91.5194 39.6274 91.2145C39.4186 90.9096 39.3142 90.5268 39.3142 90.0661V82.5341ZM44.0111 92V84.3636H45.4976V92H44.0111ZM44.7618 83.1854C44.5033 83.1854 44.2812 83.0992 44.0956 82.9268C43.9133 82.7512 43.8221 82.5424 43.8221 82.3004C43.8221 82.0552 43.9133 81.8464 44.0956 81.674C44.2812 81.4983 44.5033 81.4105 44.7618 81.4105C45.0203 81.4105 45.2407 81.4983 45.423 81.674C45.6086 81.8464 45.7014 82.0552 45.7014 82.3004C45.7014 82.5424 45.6086 82.7512 45.423 82.9268C45.2407 83.0992 45.0203 83.1854 44.7618 83.1854ZM51.1316 84.3636V85.5568H46.8163V84.3636H51.1316ZM47.9995 92V83.4787C47.9995 83.0014 48.1039 82.6053 48.3127 82.2905C48.5215 81.9723 48.7983 81.7353 49.143 81.5795C49.4877 81.4205 49.8622 81.3409 50.2666 81.3409C50.5649 81.3409 50.8201 81.3658 51.0322 81.4155C51.2443 81.4619 51.4018 81.505 51.5045 81.5447L51.1565 82.7479C51.0869 82.728 50.9974 82.7048 50.888 82.6783C50.7786 82.6484 50.6461 82.6335 50.4903 82.6335C50.129 82.6335 49.8705 82.723 49.7147 82.902C49.5623 83.081 49.486 83.3395 49.486 83.6776V92H47.9995ZM52.6654 92V84.3636H54.1519V92H52.6654ZM53.4161 83.1854C53.1576 83.1854 52.9355 83.0992 52.7499 82.9268C52.5676 82.7512 52.4764 82.5424 52.4764 82.3004C52.4764 82.0552 52.5676 81.8464 52.7499 81.674C52.9355 81.4983 53.1576 81.4105 53.4161 81.4105C53.6746 81.4105 53.895 81.4983 54.0773 81.674C54.2629 81.8464 54.3557 82.0552 54.3557 82.3004C54.3557 82.5424 54.2629 82.7512 54.0773 82.9268C53.895 83.0992 53.6746 83.1854 53.4161 83.1854ZM59.3683 92.1541C58.6292 92.1541 57.9928 91.9867 57.4592 91.652C56.9289 91.3139 56.5212 90.8482 56.2362 90.255C55.9512 89.6617 55.8087 88.9822 55.8087 88.2166C55.8087 87.4411 55.9545 86.7566 56.2462 86.1634C56.5378 85.5668 56.9488 85.1011 57.4791 84.7663C58.0094 84.4316 58.6342 84.2642 59.3534 84.2642C59.9334 84.2642 60.4505 84.3719 60.9045 84.5874C61.3586 84.7995 61.7248 85.0978 62.0033 85.4822C62.285 85.8667 62.4524 86.3158 62.5054 86.8295H61.0587C60.9791 86.4716 60.7968 86.1634 60.5118 85.9048C60.2301 85.6463 59.8522 85.517 59.3783 85.517C58.964 85.517 58.601 85.6264 58.2895 85.8452C57.9812 86.0606 57.7409 86.3688 57.5686 86.7699C57.3962 87.1676 57.3101 87.6383 57.3101 88.1818C57.3101 88.7386 57.3946 89.2192 57.5636 89.6236C57.7327 90.0279 57.9713 90.3411 58.2795 90.5632C58.5911 90.7853 58.9573 90.8963 59.3783 90.8963C59.66 90.8963 59.9152 90.8449 60.1439 90.7422C60.3759 90.6361 60.5698 90.4853 60.7256 90.2898C60.8846 90.0942 60.9957 89.8589 61.0587 89.5838H62.5054C62.4524 90.0777 62.2916 90.5185 62.0231 90.9062C61.7547 91.294 61.3951 91.599 60.9443 91.821C60.4969 92.0431 59.9715 92.1541 59.3683 92.1541ZM66.3174 92.169C65.8335 92.169 65.396 92.0795 65.0049 91.9006C64.6138 91.7183 64.3039 91.4548 64.0752 91.1101C63.8498 90.7654 63.7371 90.3428 63.7371 89.8423C63.7371 89.4115 63.82 89.0568 63.9857 88.7784C64.1514 88.5 64.3751 88.2796 64.6568 88.1172C64.9386 87.9548 65.2534 87.8321 65.6014 87.7493C65.9495 87.6664 66.3041 87.6035 66.6654 87.5604C67.1228 87.5073 67.494 87.4643 67.779 87.4311C68.064 87.3946 68.2712 87.3366 68.4005 87.2571C68.5297 87.1776 68.5943 87.0483 68.5943 86.8693V86.8345C68.5943 86.4003 68.4717 86.0639 68.2264 85.8253C67.9845 85.5866 67.6232 85.4673 67.1426 85.4673C66.6422 85.4673 66.2478 85.5784 65.9594 85.8004C65.6744 86.0192 65.4772 86.2628 65.3678 86.5312L63.9708 86.2131C64.1365 85.7491 64.3784 85.3745 64.6966 85.0895C65.0181 84.8011 65.3877 84.5923 65.8053 84.4631C66.2229 84.3305 66.6621 84.2642 67.1228 84.2642C67.4277 84.2642 67.7508 84.3007 68.0922 84.3736C68.4369 84.4432 68.7584 84.5724 69.0567 84.7614C69.3583 84.9503 69.6052 85.2204 69.7975 85.5717C69.9897 85.9197 70.0858 86.3722 70.0858 86.929V92H68.6341V90.956H68.5745C68.4783 91.1482 68.3342 91.3371 68.1419 91.5227C67.9497 91.7083 67.7028 91.8625 67.4012 91.9851C67.0996 92.1077 66.7383 92.169 66.3174 92.169ZM66.6405 90.9759C67.0515 90.9759 67.4028 90.8946 67.6945 90.7322C67.9895 90.5698 68.2132 90.3577 68.3657 90.0959C68.5214 89.8307 68.5993 89.5473 68.5993 89.2457V88.2614C68.5463 88.3144 68.4435 88.3641 68.2911 88.4105C68.1419 88.4536 67.9712 88.4917 67.779 88.5249C67.5868 88.5547 67.3995 88.5829 67.2172 88.6094C67.0349 88.6326 66.8825 88.6525 66.7598 88.669C66.4715 88.7055 66.208 88.7668 65.9693 88.853C65.734 88.9392 65.5451 89.0634 65.4026 89.2259C65.2634 89.3849 65.1938 89.5971 65.1938 89.8622C65.1938 90.2301 65.3297 90.5085 65.6014 90.6974C65.8732 90.883 66.2196 90.9759 66.6405 90.9759ZM75.6304 84.3636V85.5568H71.4592V84.3636H75.6304ZM72.5778 82.5341H74.0643V89.7578C74.0643 90.0462 74.1074 90.2633 74.1936 90.4091C74.2798 90.5516 74.3908 90.6494 74.5267 90.7024C74.6659 90.7521 74.8167 90.777 74.9791 90.777C75.0984 90.777 75.2028 90.7687 75.2923 90.7521C75.3818 90.7356 75.4514 90.7223 75.5011 90.7124L75.7696 91.9403C75.6834 91.9735 75.5608 92.0066 75.4017 92.0398C75.2426 92.0762 75.0437 92.0961 74.8051 92.0994C74.414 92.1061 74.0494 92.0365 73.7114 91.8906C73.3733 91.7448 73.0998 91.5194 72.891 91.2145C72.6822 90.9096 72.5778 90.5268 72.5778 90.0661V82.5341ZM77.2747 92V84.3636H78.7612V92H77.2747ZM78.0255 83.1854C77.7669 83.1854 77.5449 83.0992 77.3593 82.9268C77.177 82.7512 77.0858 82.5424 77.0858 82.3004C77.0858 82.0552 77.177 81.8464 77.3593 81.674C77.5449 81.4983 77.7669 81.4105 78.0255 81.4105C78.284 81.4105 78.5044 81.4983 78.6867 81.674C78.8723 81.8464 78.9651 82.0552 78.9651 82.3004C78.9651 82.5424 78.8723 82.7512 78.6867 82.9268C78.5044 83.0992 78.284 83.1854 78.0255 83.1854ZM83.9777 92.1541C83.2618 92.1541 82.637 91.9901 82.1034 91.6619C81.5698 91.3338 81.1555 90.8748 80.8605 90.2848C80.5655 89.6948 80.418 89.0054 80.418 88.2166C80.418 87.4245 80.5655 86.7318 80.8605 86.1385C81.1555 85.5452 81.5698 85.0845 82.1034 84.7564C82.637 84.4283 83.2618 84.2642 83.9777 84.2642C84.6936 84.2642 85.3184 84.4283 85.852 84.7564C86.3856 85.0845 86.7999 85.5452 87.0949 86.1385C87.3899 86.7318 87.5373 87.4245 87.5373 88.2166C87.5373 89.0054 87.3899 89.6948 87.0949 90.2848C86.7999 90.8748 86.3856 91.3338 85.852 91.6619C85.3184 91.9901 84.6936 92.1541 83.9777 92.1541ZM83.9827 90.9062C84.4467 90.9062 84.8311 90.7836 85.1361 90.5384C85.441 90.2931 85.6664 89.9666 85.8122 89.5589C85.9614 89.1513 86.0359 88.7022 86.0359 88.2116C86.0359 87.7244 85.9614 87.277 85.8122 86.8693C85.6664 86.4583 85.441 86.1286 85.1361 85.88C84.8311 85.6314 84.4467 85.5071 83.9827 85.5071C83.5153 85.5071 83.1275 85.6314 82.8193 85.88C82.5144 86.1286 82.2873 86.4583 82.1382 86.8693C81.9924 87.277 81.9195 87.7244 81.9195 88.2116C81.9195 88.7022 81.9924 89.1513 82.1382 89.5589C82.2873 89.9666 82.5144 90.2931 82.8193 90.5384C83.1275 90.7836 83.5153 90.9062 83.9827 90.9062ZM90.6831 87.4659V92H89.1966V84.3636H90.6235V85.6065H90.7179C90.8936 85.2022 91.1687 84.8774 91.5432 84.6321C91.921 84.3868 92.3967 84.2642 92.9701 84.2642C93.4904 84.2642 93.9461 84.3736 94.3372 84.5923C94.7283 84.8078 95.0316 85.1293 95.247 85.5568C95.4625 85.9844 95.5702 86.513 95.5702 87.1428V92H94.0837V87.3217C94.0837 86.7682 93.9395 86.3357 93.6512 86.0241C93.3628 85.7093 92.9667 85.5518 92.463 85.5518C92.1183 85.5518 91.8117 85.6264 91.5432 85.7756C91.2781 85.9247 91.0676 86.1435 90.9118 86.4318C90.7594 86.7169 90.6831 87.0616 90.6831 87.4659ZM103.286 86.228L101.939 86.4666C101.882 86.2943 101.793 86.1302 101.67 85.9744C101.551 85.8187 101.389 85.6911 101.183 85.5916C100.978 85.4922 100.721 85.4425 100.413 85.4425C99.9916 85.4425 99.6403 85.5369 99.3585 85.7259C99.0768 85.9115 98.936 86.1518 98.936 86.4467C98.936 86.7019 99.0304 86.9074 99.2193 87.0632C99.4083 87.219 99.7132 87.3466 100.134 87.446L101.347 87.7244C102.05 87.8868 102.574 88.1371 102.918 88.4751C103.263 88.8132 103.435 89.2524 103.435 89.7926C103.435 90.25 103.303 90.6577 103.038 91.0156C102.776 91.3703 102.409 91.6487 101.939 91.8509C101.471 92.053 100.93 92.1541 100.313 92.1541C99.458 92.1541 98.7603 91.9718 98.2201 91.6072C97.6798 91.2393 97.3484 90.7173 97.2257 90.0412L98.6625 89.8224C98.752 90.197 98.936 90.4804 99.2144 90.6726C99.4928 90.8615 99.8557 90.956 100.303 90.956C100.79 90.956 101.18 90.8549 101.471 90.6527C101.763 90.4472 101.909 90.197 101.909 89.902C101.909 89.6634 101.819 89.4628 101.641 89.3004C101.465 89.138 101.195 89.0154 100.83 88.9325L99.5375 88.6491C98.8249 88.4867 98.2979 88.2282 97.9566 87.8736C97.6185 87.5189 97.4495 87.0698 97.4495 86.5263C97.4495 86.0755 97.5754 85.6811 97.8273 85.343C98.0792 85.005 98.4272 84.7415 98.8713 84.5526C99.3155 84.3603 99.8242 84.2642 100.398 84.2642C101.223 84.2642 101.873 84.4432 102.346 84.8011C102.82 85.1558 103.134 85.6314 103.286 86.228ZM112.339 84.3636V85.5568H108.168V84.3636H112.339ZM109.287 82.5341H110.773V89.7578C110.773 90.0462 110.816 90.2633 110.903 90.4091C110.989 90.5516 111.1 90.6494 111.236 90.7024C111.375 90.7521 111.526 90.777 111.688 90.777C111.807 90.777 111.912 90.7687 112.001 90.7521C112.091 90.7356 112.16 90.7223 112.21 90.7124L112.479 91.9403C112.392 91.9735 112.27 92.0066 112.111 92.0398C111.952 92.0762 111.753 92.0961 111.514 92.0994C111.123 92.1061 110.758 92.0365 110.42 91.8906C110.082 91.7448 109.809 91.5194 109.6 91.2145C109.391 90.9096 109.287 90.5268 109.287 90.0661V82.5341ZM117.118 92.1541C116.402 92.1541 115.778 91.9901 115.244 91.6619C114.71 91.3338 114.296 90.8748 114.001 90.2848C113.706 89.6948 113.559 89.0054 113.559 88.2166C113.559 87.4245 113.706 86.7318 114.001 86.1385C114.296 85.5452 114.71 85.0845 115.244 84.7564C115.778 84.4283 116.402 84.2642 117.118 84.2642C117.834 84.2642 118.459 84.4283 118.993 84.7564C119.526 85.0845 119.941 85.5452 120.236 86.1385C120.53 86.7318 120.678 87.4245 120.678 88.2166C120.678 89.0054 120.53 89.6948 120.236 90.2848C119.941 90.8748 119.526 91.3338 118.993 91.6619C118.459 91.9901 117.834 92.1541 117.118 92.1541ZM117.123 90.9062C117.587 90.9062 117.972 90.7836 118.277 90.5384C118.582 90.2931 118.807 89.9666 118.953 89.5589C119.102 89.1513 119.177 88.7022 119.177 88.2116C119.177 87.7244 119.102 87.277 118.953 86.8693C118.807 86.4583 118.582 86.1286 118.277 85.88C117.972 85.6314 117.587 85.5071 117.123 85.5071C116.656 85.5071 116.268 85.6314 115.96 85.88C115.655 86.1286 115.428 86.4583 115.279 86.8693C115.133 87.277 115.06 87.7244 115.06 88.2116C115.06 88.7022 115.133 89.1513 115.279 89.5589C115.428 89.9666 115.655 90.2931 115.96 90.5384C116.268 90.7836 116.656 90.9062 117.123 90.9062ZM126.982 94.8636C126.76 94.8636 126.558 94.8454 126.375 94.8089C126.193 94.7758 126.057 94.7393 125.968 94.6996L126.326 93.4815C126.597 93.5545 126.839 93.5859 127.052 93.576C127.264 93.5661 127.451 93.4865 127.613 93.3374C127.779 93.1882 127.925 92.9446 128.051 92.6065L128.235 92.0994L125.441 84.3636H127.032L128.966 90.2898H129.045L130.979 84.3636H132.575L129.428 93.0192C129.282 93.4169 129.097 93.7533 128.871 94.0284C128.646 94.3068 128.377 94.5156 128.066 94.6548C127.754 94.794 127.393 94.8636 126.982 94.8636ZM136.929 92.1541C136.213 92.1541 135.588 91.9901 135.055 91.6619C134.521 91.3338 134.107 90.8748 133.812 90.2848C133.517 89.6948 133.369 89.0054 133.369 88.2166C133.369 87.4245 133.517 86.7318 133.812 86.1385C134.107 85.5452 134.521 85.0845 135.055 84.7564C135.588 84.4283 136.213 84.2642 136.929 84.2642C137.645 84.2642 138.27 84.4283 138.803 84.7564C139.337 85.0845 139.751 85.5452 140.046 86.1385C140.341 86.7318 140.489 87.4245 140.489 88.2166C140.489 89.0054 140.341 89.6948 140.046 90.2848C139.751 90.8748 139.337 91.3338 138.803 91.6619C138.27 91.9901 137.645 92.1541 136.929 92.1541ZM136.934 90.9062C137.398 90.9062 137.782 90.7836 138.087 90.5384C138.392 90.2931 138.618 89.9666 138.763 89.5589C138.913 89.1513 138.987 88.7022 138.987 88.2116C138.987 87.7244 138.913 87.277 138.763 86.8693C138.618 86.4583 138.392 86.1286 138.087 85.88C137.782 85.6314 137.398 85.5071 136.934 85.5071C136.467 85.5071 136.079 85.6314 135.77 85.88C135.466 86.1286 135.239 86.4583 135.089 86.8693C134.944 87.277 134.871 87.7244 134.871 88.2116C134.871 88.7022 134.944 89.1513 135.089 89.5589C135.239 89.9666 135.466 90.2931 135.77 90.5384C136.079 90.7836 136.467 90.9062 136.934 90.9062ZM146.985 88.8331V84.3636H148.477V92H147.015V90.6776H146.935C146.76 91.0852 146.478 91.425 146.09 91.6967C145.706 91.9652 145.227 92.0994 144.653 92.0994C144.163 92.0994 143.729 91.9917 143.351 91.7763C142.976 91.5575 142.681 91.2344 142.466 90.8068C142.254 90.3793 142.148 89.8506 142.148 89.2209V84.3636H143.634V89.0419C143.634 89.5623 143.778 89.9766 144.067 90.2848C144.355 90.593 144.73 90.7472 145.19 90.7472C145.469 90.7472 145.746 90.6776 146.021 90.5384C146.299 90.3991 146.529 90.1887 146.712 89.907C146.897 89.6252 146.988 89.2673 146.985 88.8331ZM23.4859 104.466V109H21.9994V98.8182H23.466V102.607H23.5604C23.7394 102.196 24.0128 101.869 24.3807 101.627C24.7486 101.385 25.2292 101.264 25.8225 101.264C26.3462 101.264 26.8036 101.372 27.1947 101.587C27.5891 101.803 27.894 102.124 28.1094 102.552C28.3282 102.976 28.4376 103.506 28.4376 104.143V109H26.9511V104.322C26.9511 103.762 26.8069 103.327 26.5185 103.019C26.2302 102.708 25.8291 102.552 25.3154 102.552C24.9641 102.552 24.6492 102.626 24.3708 102.776C24.0957 102.925 23.8786 103.143 23.7195 103.432C23.5637 103.717 23.4859 104.062 23.4859 104.466ZM33.7124 109.154C32.9601 109.154 32.3121 108.993 31.7685 108.672C31.2283 108.347 30.8107 107.891 30.5157 107.305C30.224 106.715 30.0782 106.024 30.0782 105.232C30.0782 104.449 30.224 103.76 30.5157 103.163C30.8107 102.567 31.2217 102.101 31.7486 101.766C32.2789 101.432 32.8987 101.264 33.608 101.264C34.0389 101.264 34.4565 101.335 34.8609 101.478C35.2652 101.621 35.6281 101.844 35.9496 102.149C36.2711 102.454 36.5247 102.85 36.7103 103.337C36.8959 103.821 36.9887 104.41 36.9887 105.102V105.629H30.9184V104.516H35.532C35.532 104.125 35.4525 103.778 35.2934 103.477C35.1343 103.172 34.9106 102.931 34.6222 102.756C34.3372 102.58 34.0024 102.492 33.618 102.492C33.2003 102.492 32.8358 102.595 32.5242 102.8C32.216 103.003 31.9773 103.268 31.8083 103.596C31.6426 103.921 31.5597 104.274 31.5597 104.655V105.525C31.5597 106.035 31.6492 106.469 31.8282 106.827C32.0105 107.185 32.264 107.459 32.5888 107.648C32.9137 107.833 33.2931 107.926 33.7273 107.926C34.0091 107.926 34.2659 107.886 34.4979 107.807C34.7299 107.724 34.9305 107.601 35.0995 107.439C35.2685 107.277 35.3978 107.076 35.4873 106.837L36.8942 107.091C36.7815 107.505 36.5794 107.868 36.2877 108.18C35.9994 108.488 35.6364 108.728 35.1989 108.901C34.7647 109.07 34.2692 109.154 33.7124 109.154ZM38.638 109V101.364H40.0748V102.577H40.1544C40.2936 102.166 40.5388 101.843 40.8902 101.607C41.2448 101.369 41.6458 101.249 42.0933 101.249C42.1861 101.249 42.2955 101.253 42.4214 101.259C42.5507 101.266 42.6518 101.274 42.7247 101.284V102.706C42.665 102.689 42.559 102.671 42.4065 102.651C42.254 102.628 42.1016 102.616 41.9491 102.616C41.5978 102.616 41.2846 102.691 41.0095 102.84C40.7377 102.986 40.5223 103.19 40.3632 103.452C40.2041 103.71 40.1245 104.005 40.1245 104.337V109H38.638ZM47.0288 109.154C46.2765 109.154 45.6285 108.993 45.0849 108.672C44.5447 108.347 44.1271 107.891 43.8321 107.305C43.5404 106.715 43.3946 106.024 43.3946 105.232C43.3946 104.449 43.5404 103.76 43.8321 103.163C44.1271 102.567 44.5381 102.101 45.065 101.766C45.5953 101.432 46.2151 101.264 46.9244 101.264C47.3553 101.264 47.7729 101.335 48.1773 101.478C48.5816 101.621 48.9445 101.844 49.266 102.149C49.5875 102.454 49.8411 102.85 50.0267 103.337C50.2123 103.821 50.3051 104.41 50.3051 105.102V105.629H44.2348V104.516H48.8484C48.8484 104.125 48.7689 103.778 48.6098 103.477C48.4507 103.172 48.227 102.931 47.9386 102.756C47.6536 102.58 47.3188 102.492 46.9344 102.492C46.5168 102.492 46.1522 102.595 45.8406 102.8C45.5324 103.003 45.2937 103.268 45.1247 103.596C44.959 103.921 44.8761 104.274 44.8761 104.655V105.525C44.8761 106.035 44.9656 106.469 45.1446 106.827C45.3269 107.185 45.5804 107.459 45.9052 107.648C46.2301 107.833 46.6096 107.926 47.0437 107.926C47.3255 107.926 47.5823 107.886 47.8143 107.807C48.0463 107.724 48.2469 107.601 48.4159 107.439C48.5849 107.277 48.7142 107.076 48.8037 106.837L50.2106 107.091C50.098 107.505 49.8958 107.868 49.6041 108.18C49.3158 108.488 48.9528 108.728 48.5153 108.901C48.0811 109.07 47.5856 109.154 47.0288 109.154Z" fill="#19191A"/>
<path d="M42.0001 28.3331C42.0001 26.4766 41.2626 24.6961 39.9498 23.3834C38.6371 22.0706 36.8566 21.3331 35.0001 21.3331C33.1435 21.3331 31.3631 22.0706 30.0503 23.3834C28.7376 24.6961 28.0001 26.4766 28.0001 28.3331C28.0001 36.4998 24.5001 38.8331 24.5001 38.8331H45.5001C45.5001 38.8331 42.0001 36.4998 42.0001 28.3331Z" fill="#165DFF" fill-opacity="0.1" stroke="black" stroke-width="1.4" stroke-linecap="round" stroke-linejoin="round"/>
<path d="M37.0181 43.5C36.8129 43.8536 36.5185 44.1471 36.1643 44.3511C35.8101 44.5551 35.4085 44.6625 34.9997 44.6625C34.5909 44.6625 34.1893 44.5551 33.8351 44.3511C33.4809 44.1471 33.1865 43.8536 32.9814 43.5" stroke="black" stroke-width="1.4" stroke-linecap="round" stroke-linejoin="round"/>
<rect x="21.3501" y="127.85" width="161" height="34.3" rx="5.25" fill="white"/>
<rect x="21.3501" y="127.85" width="161" height="34.3" rx="5.25" stroke="#D4D4D4" stroke-width="0.7"/>
<path d="M33.8158 145.553V148.5H32.8496V141.882H33.8029V144.344H33.8643C33.9806 144.077 34.1584 143.865 34.3975 143.708C34.6366 143.55 34.949 143.472 35.3347 143.472C35.675 143.472 35.9724 143.542 36.2266 143.682C36.4829 143.822 36.6811 144.031 36.8212 144.309C36.9634 144.584 37.0344 144.929 37.0344 145.343V148.5H36.0682V145.459C36.0682 145.095 35.9745 144.813 35.7871 144.612C35.5996 144.41 35.339 144.309 35.005 144.309C34.7767 144.309 34.572 144.357 34.3911 144.454C34.2122 144.551 34.0711 144.693 33.9677 144.881C33.8665 145.066 33.8158 145.29 33.8158 145.553ZM40.4631 148.6C39.9741 148.6 39.5529 148.496 39.1996 148.287C38.8484 148.076 38.577 147.779 38.3852 147.398C38.1956 147.015 38.1009 146.565 38.1009 146.05C38.1009 145.542 38.1956 145.094 38.3852 144.706C38.577 144.318 38.8441 144.016 39.1866 143.798C39.5313 143.581 39.9342 143.472 40.3952 143.472C40.6753 143.472 40.9468 143.518 41.2096 143.611C41.4724 143.703 41.7083 143.849 41.9173 144.047C42.1263 144.245 42.2911 144.503 42.4117 144.819C42.5324 145.134 42.5927 145.516 42.5927 145.966V146.309H38.647V145.585H41.6458C41.6458 145.331 41.5941 145.106 41.4907 144.91C41.3873 144.712 41.2419 144.555 41.0545 144.441C40.8692 144.327 40.6516 144.27 40.4017 144.27C40.1303 144.27 39.8933 144.337 39.6908 144.47C39.4904 144.602 39.3353 144.774 39.2254 144.987C39.1177 145.198 39.0639 145.428 39.0639 145.676V146.241C39.0639 146.573 39.122 146.855 39.2384 147.088C39.3568 147.32 39.5217 147.498 39.7328 147.621C39.9439 147.742 40.1906 147.802 40.4728 147.802C40.6559 147.802 40.8229 147.776 40.9737 147.724C41.1245 147.671 41.2548 147.591 41.3647 147.485C41.4746 147.38 41.5586 147.249 41.6168 147.094L42.5313 147.259C42.458 147.528 42.3266 147.764 42.137 147.967C41.9496 148.167 41.7137 148.323 41.4293 148.435C41.1471 148.545 40.825 148.6 40.4631 148.6ZM44.631 141.882V148.5H43.6647V141.882H44.631ZM46.8971 141.882V148.5H45.9309V141.882H46.8971ZM50.2878 148.6C49.8224 148.6 49.4163 148.494 49.0695 148.28C48.7226 148.067 48.4533 147.769 48.2616 147.385C48.0699 147.002 47.974 146.554 47.974 146.041C47.974 145.526 48.0699 145.076 48.2616 144.69C48.4533 144.304 48.7226 144.005 49.0695 143.792C49.4163 143.578 49.8224 143.472 50.2878 143.472C50.7531 143.472 51.1592 143.578 51.5061 143.792C51.8529 144.005 52.1222 144.304 52.3139 144.69C52.5057 145.076 52.6016 145.526 52.6016 146.041C52.6016 146.554 52.5057 147.002 52.3139 147.385C52.1222 147.769 51.8529 148.067 51.5061 148.28C51.1592 148.494 50.7531 148.6 50.2878 148.6ZM50.291 147.789C50.5926 147.789 50.8425 147.709 51.0407 147.55C51.2389 147.391 51.3854 147.178 51.4802 146.913C51.5772 146.648 51.6256 146.356 51.6256 146.038C51.6256 145.721 51.5772 145.43 51.4802 145.165C51.3854 144.898 51.2389 144.684 51.0407 144.522C50.8425 144.36 50.5926 144.28 50.291 144.28C49.9872 144.28 49.7352 144.36 49.5348 144.522C49.3366 144.684 49.1891 144.898 49.0921 145.165C48.9973 145.43 48.9499 145.721 48.9499 146.038C48.9499 146.356 48.9973 146.648 49.0921 146.913C49.1891 147.178 49.3366 147.391 49.5348 147.55C49.7352 147.709 49.9872 147.789 50.291 147.789ZM57.6646 150.3C56.9967 150.3 56.4043 150.208 55.8872 150.025C55.3723 149.844 54.9382 149.577 54.5849 149.224C54.2316 148.873 53.9634 148.442 53.7803 147.931C53.5971 147.421 53.5056 146.838 53.5056 146.183C53.5056 145.545 53.5982 144.972 53.7835 144.464C53.9688 143.955 54.2381 143.522 54.5914 143.165C54.9468 142.805 55.3788 142.53 55.8872 142.341C56.3956 142.151 56.973 142.056 57.6193 142.056C58.2376 142.056 58.7827 142.153 59.2545 142.347C59.7263 142.541 60.1227 142.807 60.4437 143.145C60.7668 143.484 61.0103 143.871 61.174 144.309C61.3377 144.746 61.4196 145.208 61.4196 145.695C61.4196 146.035 61.3981 146.368 61.355 146.694C61.3119 147.017 61.2322 147.31 61.1158 147.573C61.0017 147.833 60.8358 148.042 60.6182 148.199C60.4027 148.355 60.1227 148.435 59.778 148.442C59.5949 148.448 59.4171 148.427 59.2448 148.377C59.0724 148.328 58.9259 148.248 58.8053 148.138C58.6846 148.026 58.6114 147.884 58.5855 147.712H58.5468C58.4951 147.839 58.4089 147.957 58.2882 148.067C58.1676 148.175 58.0136 148.261 57.8261 148.325C57.6409 148.388 57.4254 148.414 57.1798 148.403C56.9084 148.392 56.6639 148.331 56.4463 148.219C56.2287 148.107 56.0423 147.952 55.8872 147.754C55.7343 147.555 55.6168 147.32 55.535 147.049C55.4531 146.778 55.4122 146.476 55.4122 146.144C55.4122 145.825 55.4585 145.54 55.5511 145.288C55.6438 145.034 55.7698 144.815 55.9292 144.632C56.0908 144.447 56.2761 144.3 56.4851 144.192C56.694 144.085 56.9148 144.017 57.1475 143.989C57.3737 143.963 57.5816 143.969 57.7712 144.008C57.9608 144.047 58.1181 144.106 58.243 144.186C58.3701 144.266 58.4498 144.353 58.4821 144.448H58.5241V144.086H59.3191V147.085C59.3191 147.255 59.3633 147.399 59.4516 147.518C59.5421 147.636 59.6703 147.695 59.8362 147.695C60.0322 147.695 60.1852 147.623 60.295 147.479C60.4071 147.334 60.4857 147.113 60.5309 146.813C60.5783 146.514 60.602 146.13 60.602 145.663C60.602 145.335 60.5579 145.027 60.4695 144.738C60.3834 144.448 60.2552 144.185 60.085 143.95C59.9169 143.713 59.7101 143.509 59.4645 143.339C59.2189 143.169 58.9389 143.038 58.6243 142.945C58.3119 142.852 57.9662 142.806 57.587 142.806C57.0721 142.806 56.6143 142.886 56.2136 143.045C55.8129 143.202 55.4747 143.43 55.1989 143.727C54.9253 144.024 54.7174 144.381 54.5752 144.797C54.4352 145.21 54.3652 145.675 54.3652 146.189C54.3652 146.726 54.4373 147.202 54.5817 147.618C54.726 148.031 54.9393 148.38 55.2215 148.665C55.5037 148.949 55.8527 149.165 56.2685 149.311C56.6843 149.46 57.1637 149.534 57.7066 149.534C57.9479 149.534 58.1848 149.513 58.4175 149.469C58.6502 149.429 58.857 149.381 59.038 149.327C59.2211 149.276 59.3579 149.234 59.4484 149.201L59.6746 149.909C59.541 149.971 59.3633 150.033 59.1414 150.093C58.9216 150.153 58.6825 150.203 58.424 150.242C58.1676 150.281 57.9145 150.3 57.6646 150.3ZM57.3673 147.611C57.6473 147.611 57.8725 147.555 58.0426 147.443C58.215 147.331 58.3389 147.164 58.4143 146.942C58.4918 146.718 58.5306 146.438 58.5306 146.102C58.5285 145.775 58.4864 145.514 58.4046 145.32C58.3249 145.124 58.1999 144.984 58.0297 144.9C57.8617 144.814 57.6452 144.771 57.3802 144.771C57.1367 144.771 56.9288 144.83 56.7565 144.949C56.5863 145.067 56.456 145.228 56.3655 145.43C56.2772 145.633 56.2319 145.858 56.2298 146.105C56.2319 146.366 56.2685 146.612 56.3396 146.842C56.4129 147.071 56.5314 147.256 56.6951 147.398C56.861 147.54 57.085 147.611 57.3673 147.611ZM63.453 141.882V148.5H62.4868V141.882H63.453ZM66.8437 148.6C66.3784 148.6 65.9723 148.494 65.6254 148.28C65.2786 148.067 65.0093 147.769 64.8176 147.385C64.6258 147.002 64.53 146.554 64.53 146.041C64.53 145.526 64.6258 145.076 64.8176 144.69C65.0093 144.304 65.2786 144.005 65.6254 143.792C65.9723 143.578 66.3784 143.472 66.8437 143.472C67.3091 143.472 67.7152 143.578 68.062 143.792C68.4089 144.005 68.6782 144.304 68.8699 144.69C69.0616 145.076 69.1575 145.526 69.1575 146.041C69.1575 146.554 69.0616 147.002 68.8699 147.385C68.6782 147.769 68.4089 148.067 68.062 148.28C67.7152 148.494 67.3091 148.6 66.8437 148.6ZM66.847 147.789C67.1486 147.789 67.3985 147.709 67.5967 147.55C67.7949 147.391 67.9414 147.178 68.0362 146.913C68.1331 146.648 68.1816 146.356 68.1816 146.038C68.1816 145.721 68.1331 145.43 68.0362 145.165C67.9414 144.898 67.7949 144.684 67.5967 144.522C67.3985 144.36 67.1486 144.28 66.847 144.28C66.5432 144.28 66.2911 144.36 66.0908 144.522C65.8926 144.684 65.745 144.898 65.6481 145.165C65.5533 145.43 65.5059 145.721 65.5059 146.038C65.5059 146.356 65.5533 146.648 65.6481 146.913C65.745 147.178 65.8926 147.391 66.0908 147.55C66.2911 147.709 66.5432 147.789 66.847 147.789ZM72.3268 148.6C71.8464 148.6 71.4328 148.491 71.0859 148.274C70.7412 148.054 70.4762 147.751 70.291 147.366C70.1057 146.98 70.0131 146.538 70.0131 146.041C70.0131 145.537 70.1079 145.092 70.2974 144.706C70.487 144.318 70.7542 144.016 71.0989 143.798C71.4436 143.581 71.8496 143.472 72.3171 143.472C72.6942 143.472 73.0302 143.542 73.3254 143.682C73.6205 143.82 73.8586 144.014 74.0396 144.263C74.2227 144.513 74.3315 144.805 74.3659 145.139H73.4256C73.3739 144.907 73.2554 144.706 73.0701 144.538C72.887 144.37 72.6414 144.286 72.3333 144.286C72.064 144.286 71.8281 144.357 71.6256 144.499C71.4252 144.639 71.2691 144.84 71.157 145.1C71.045 145.359 70.989 145.665 70.989 146.018C70.989 146.38 71.0439 146.692 71.1538 146.955C71.2637 147.218 71.4188 147.422 71.6191 147.566C71.8216 147.71 72.0597 147.783 72.3333 147.783C72.5164 147.783 72.6823 147.749 72.831 147.682C72.9818 147.613 73.1078 147.515 73.209 147.388C73.3125 147.261 73.3846 147.108 73.4256 146.929H74.3659C74.3315 147.25 74.227 147.537 74.0525 147.789C73.878 148.041 73.6442 148.239 73.3512 148.384C73.0604 148.528 72.7189 148.6 72.3268 148.6ZM76.3654 145.553V148.5H75.3992V141.882H76.3525V144.344H76.4139C76.5303 144.077 76.708 143.865 76.9471 143.708C77.1863 143.55 77.4986 143.472 77.8843 143.472C78.2247 143.472 78.522 143.542 78.7762 143.682C79.0325 143.822 79.2307 144.031 79.3708 144.309C79.513 144.584 79.5841 144.929 79.5841 145.343V148.5H78.6178V145.459C78.6178 145.095 78.5241 144.813 78.3367 144.612C78.1493 144.41 77.8886 144.309 77.5547 144.309C77.3263 144.309 77.1216 144.357 76.9407 144.454C76.7618 144.551 76.6207 144.693 76.5173 144.881C76.4161 145.066 76.3654 145.29 76.3654 145.553ZM81.5101 148.561C81.3334 148.561 81.1815 148.499 81.0544 148.374C80.9273 148.247 80.8637 148.094 80.8637 147.915C80.8637 147.738 80.9273 147.588 81.0544 147.463C81.1815 147.336 81.3334 147.272 81.5101 147.272C81.6867 147.272 81.8386 147.336 81.9657 147.463C82.0928 147.588 82.1564 147.738 82.1564 147.915C82.1564 148.034 82.1262 148.142 82.0659 148.241C82.0077 148.338 81.9301 148.416 81.8332 148.474C81.7363 148.532 81.6285 148.561 81.5101 148.561ZM85.5414 148.6C85.076 148.6 84.67 148.494 84.3231 148.28C83.9762 148.067 83.707 147.769 83.5152 147.385C83.3235 147.002 83.2276 146.554 83.2276 146.041C83.2276 145.526 83.3235 145.076 83.5152 144.69C83.707 144.304 83.9762 144.005 84.3231 143.792C84.67 143.578 85.076 143.472 85.5414 143.472C86.0067 143.472 86.4128 143.578 86.7597 143.792C87.1065 144.005 87.3758 144.304 87.5676 144.69C87.7593 145.076 87.8552 145.526 87.8552 146.041C87.8552 146.554 87.7593 147.002 87.5676 147.385C87.3758 147.769 87.1065 148.067 86.7597 148.28C86.4128 148.494 86.0067 148.6 85.5414 148.6ZM85.5446 147.789C85.8462 147.789 86.0961 147.709 86.2943 147.55C86.4925 147.391 86.639 147.178 86.7338 146.913C86.8308 146.648 86.8792 146.356 86.8792 146.038C86.8792 145.721 86.8308 145.43 86.7338 145.165C86.639 144.898 86.4925 144.684 86.2943 144.522C86.0961 144.36 85.8462 144.28 85.5446 144.28C85.2409 144.28 84.9888 144.36 84.7884 144.522C84.5902 144.684 84.4427 144.898 84.3457 145.165C84.2509 145.43 84.2035 145.721 84.2035 146.038C84.2035 146.356 84.2509 146.648 84.3457 146.913C84.4427 147.178 84.5902 147.391 84.7884 147.55C84.9888 147.709 85.2409 147.789 85.5446 147.789ZM89.8999 145.553V148.5H88.9337V143.536H89.8611V144.344H89.9225C90.0367 144.081 90.2155 143.87 90.459 143.711C90.7046 143.551 91.0137 143.472 91.3864 143.472C91.7247 143.472 92.0209 143.543 92.2751 143.685C92.5293 143.825 92.7264 144.034 92.8665 144.312C93.0065 144.59 93.0765 144.933 93.0765 145.343V148.5H92.1103V145.459C92.1103 145.099 92.0166 144.818 91.8291 144.616C91.6417 144.411 91.3843 144.309 91.0568 144.309C90.8328 144.309 90.6335 144.357 90.459 144.454C90.2866 144.551 90.1498 144.693 90.0486 144.881C89.9495 145.066 89.8999 145.29 89.8999 145.553ZM96.5116 148.6C96.0226 148.6 95.6014 148.496 95.2481 148.287C94.8969 148.076 94.6255 147.779 94.4338 147.398C94.2442 147.015 94.1494 146.565 94.1494 146.05C94.1494 145.542 94.2442 145.094 94.4338 144.706C94.6255 144.318 94.8926 144.016 95.2352 143.798C95.5799 143.581 95.9827 143.472 96.4438 143.472C96.7238 143.472 96.9953 143.518 97.2581 143.611C97.521 143.703 97.7569 143.849 97.9658 144.047C98.1748 144.245 98.3396 144.503 98.4603 144.819C98.5809 145.134 98.6412 145.516 98.6412 145.966V146.309H94.6955V145.585H97.6944C97.6944 145.331 97.6427 145.106 97.5393 144.91C97.4359 144.712 97.2904 144.555 97.103 144.441C96.9177 144.327 96.7001 144.27 96.4502 144.27C96.1788 144.27 95.9418 144.337 95.7393 144.47C95.5389 144.602 95.3838 144.774 95.274 144.987C95.1662 145.198 95.1124 145.428 95.1124 145.676V146.241C95.1124 146.573 95.1706 146.855 95.2869 147.088C95.4054 147.32 95.5702 147.498 95.7813 147.621C95.9924 147.742 96.2391 147.802 96.5213 147.802C96.7045 147.802 96.8714 147.776 97.0222 147.724C97.173 147.671 97.3034 147.591 97.4132 147.485C97.5231 147.38 97.6071 147.249 97.6653 147.094L98.5798 147.259C98.5066 147.528 98.3752 147.764 98.1856 147.967C97.9981 148.167 97.7622 148.323 97.4779 148.435C97.1956 148.545 96.8736 148.6 96.5116 148.6Z" fill="#19191A"/>
<path d="M165.824 23.2012C165.793 22.919 165.666 22.6992 165.442 22.5419C165.22 22.3847 164.932 22.306 164.576 22.306C164.326 22.306 164.112 22.3437 163.933 22.4191C163.754 22.4945 163.618 22.5969 163.523 22.7261C163.428 22.8554 163.38 23.003 163.377 23.1689C163.377 23.3067 163.409 23.4263 163.471 23.5276C163.536 23.6288 163.623 23.715 163.733 23.7861C163.843 23.855 163.964 23.9132 164.098 23.9606C164.232 24.008 164.366 24.0478 164.502 24.0801L165.122 24.2353C165.372 24.2934 165.613 24.3721 165.843 24.4712C166.076 24.5703 166.284 24.6952 166.467 24.846C166.652 24.9968 166.798 25.1789 166.906 25.3922C167.014 25.6054 167.068 25.8553 167.068 26.1419C167.068 26.5297 166.969 26.8711 166.77 27.1663C166.572 27.4593 166.286 27.6887 165.911 27.8546C165.538 28.0183 165.087 28.1002 164.557 28.1002C164.042 28.1002 163.595 28.0205 163.216 27.861C162.839 27.7016 162.544 27.469 162.33 27.163C162.119 26.8571 162.005 26.4844 161.988 26.0449H163.167C163.185 26.2754 163.256 26.4672 163.381 26.6201C163.506 26.7731 163.668 26.8873 163.869 26.9627C164.071 27.0381 164.297 27.0758 164.547 27.0758C164.808 27.0758 165.036 27.037 165.232 26.9594C165.43 26.8797 165.586 26.7699 165.698 26.6298C165.81 26.4876 165.867 26.3218 165.869 26.1322C165.867 25.9598 165.816 25.8176 165.717 25.7056C165.618 25.5914 165.479 25.4966 165.3 25.4212C165.123 25.3437 164.917 25.2747 164.68 25.2144L163.927 25.0205C163.382 24.8805 162.951 24.6683 162.634 24.3839C162.32 24.0974 162.162 23.7171 162.162 23.2432C162.162 22.8532 162.268 22.5118 162.479 22.2188C162.692 21.9258 162.982 21.6985 163.348 21.5369C163.715 21.3732 164.129 21.2913 164.592 21.2913C165.062 21.2913 165.474 21.3732 165.827 21.5369C166.182 21.6985 166.461 21.9236 166.664 22.2123C166.866 22.4989 166.971 22.8285 166.977 23.2012H165.824ZM169.513 28.1002C169.199 28.1002 168.915 28.0442 168.663 27.9321C168.413 27.818 168.215 27.6499 168.069 27.428C167.924 27.2061 167.852 26.9325 167.852 26.6072C167.852 26.3271 167.904 26.0955 168.007 25.9124C168.111 25.7293 168.252 25.5828 168.431 25.4729C168.61 25.3631 168.811 25.2801 169.035 25.2241C169.261 25.1659 169.495 25.1239 169.736 25.0981C170.027 25.0679 170.263 25.041 170.444 25.0173C170.625 24.9914 170.756 24.9527 170.838 24.901C170.922 24.8471 170.964 24.7642 170.964 24.6521V24.6327C170.964 24.3893 170.892 24.2008 170.748 24.0672C170.603 23.9337 170.395 23.8669 170.124 23.8669C169.837 23.8669 169.61 23.9293 169.442 24.0543C169.276 24.1792 169.164 24.3268 169.106 24.497L168.014 24.3419C168.1 24.0403 168.242 23.7882 168.44 23.5857C168.639 23.3811 168.881 23.2281 169.167 23.1268C169.454 23.0234 169.771 22.9717 170.118 22.9717C170.357 22.9717 170.595 22.9997 170.832 23.0558C171.069 23.1118 171.285 23.2044 171.481 23.3337C171.677 23.4608 171.835 23.6342 171.953 23.8539C172.074 24.0737 172.134 24.3484 172.134 24.678V28H171.009V27.3181H170.971C170.9 27.456 170.799 27.5853 170.67 27.7059C170.543 27.8244 170.383 27.9203 170.189 27.9935C169.997 28.0646 169.772 28.1002 169.513 28.1002ZM169.817 27.2406C170.052 27.2406 170.255 27.1943 170.428 27.1016C170.6 27.0068 170.733 26.8819 170.825 26.7268C170.92 26.5717 170.967 26.4025 170.967 26.2194V25.6345C170.931 25.6647 170.868 25.6927 170.78 25.7185C170.694 25.7444 170.597 25.767 170.489 25.7864C170.381 25.8058 170.275 25.823 170.169 25.8381C170.064 25.8532 169.972 25.8661 169.895 25.8769C169.72 25.9006 169.564 25.9394 169.426 25.9932C169.288 26.0471 169.179 26.1225 169.1 26.2194C169.02 26.3142 168.98 26.437 168.98 26.5878C168.98 26.8033 169.059 26.9659 169.216 27.0758C169.373 27.1857 169.574 27.2406 169.817 27.2406ZM177.566 23.0364L175.799 28H174.506L172.738 23.0364H173.986L175.126 26.7235H175.178L176.322 23.0364H177.566ZM180.404 28.0969C179.907 28.0969 179.477 27.9935 179.115 27.7867C178.755 27.5777 178.478 27.2826 178.284 26.9013C178.091 26.5178 177.994 26.0665 177.994 25.5473C177.994 25.0367 178.091 24.5886 178.284 24.2029C178.48 23.8152 178.754 23.5136 179.105 23.2981C179.456 23.0805 179.869 22.9717 180.343 22.9717C180.649 22.9717 180.938 23.0213 181.209 23.1204C181.483 23.2173 181.724 23.3681 181.933 23.5728C182.144 23.7775 182.31 24.0381 182.431 24.3548C182.551 24.6694 182.611 25.0442 182.611 25.4794V25.8381H178.543V25.0496H181.49C181.488 24.8256 181.44 24.6263 181.345 24.4518C181.25 24.2751 181.117 24.1362 180.947 24.0349C180.779 23.9337 180.583 23.883 180.359 23.883C180.12 23.883 179.91 23.9412 179.729 24.0575C179.548 24.1717 179.407 24.3225 179.306 24.5099C179.207 24.6952 179.156 24.8988 179.154 25.1207V25.809C179.154 26.0977 179.207 26.3455 179.312 26.5523C179.418 26.7569 179.565 26.9142 179.755 27.0241C179.944 27.1318 180.166 27.1857 180.42 27.1857C180.591 27.1857 180.745 27.162 180.883 27.1146C181.02 27.065 181.14 26.9928 181.241 26.898C181.343 26.8033 181.419 26.6858 181.471 26.5458L182.563 26.6686C182.494 26.9573 182.363 27.2094 182.169 27.4248C181.977 27.6381 181.731 27.804 181.432 27.9224C181.133 28.0388 180.79 28.0969 180.404 28.0969Z" fill="#19191A"/>
</g>
<defs>
<filter id="filter0_dd_1_249" x="0" y="0.8" width="203.7" height="185.5" filterUnits="userSpaceOnUse" color-interpolation-filters="sRGB">
<feFlood flood-opacity="0" result="BackgroundImageFix"/>
<feColorMatrix in="SourceAlpha" type="matrix" values="0 0 0 0 0 0 0 0 0 0 0 0 0 0 0 0 0 0 127 0" result="hardAlpha"/>
<feOffset dy="0.7"/>
<feGaussianBlur stdDeviation="0.35"/>
<feComposite in2="hardAlpha" operator="out"/>
<feColorMatrix type="matrix" values="0 0 0 0 0 0 0 0 0 0 0 0 0 0 0 0 0 0 0.04 0"/>
<feBlend mode="normal" in2="BackgroundImageFix" result="effect1_dropShadow_1_249"/>
<feColorMatrix in="SourceAlpha" type="matrix" values="0 0 0 0 0 0 0 0 0 0 0 0 0 0 0 0 0 0 127 0" result="hardAlpha"/>
<feOffset dy="2.8"/>
<feGaussianBlur stdDeviation="3.5"/>
<feComposite in2="hardAlpha" operator="out"/>
<feColorMatrix type="matrix" values="0 0 0 0 0 0 0 0 0 0 0 0 0 0 0 0 0 0 0.04 0"/>
<feBlend mode="normal" in2="effect1_dropShadow_1_249" result="effect2_dropShadow_1_249"/>
<feBlend mode="normal" in="SourceGraphic" in2="effect2_dropShadow_1_249" result="shape"/>
</filter>
<linearGradient id="paint0_linear_1_249" x1="101.85" y1="52.1625" x2="101.85" y2="275.47" gradientUnits="userSpaceOnUse">
<stop stop-color="white"/>
<stop offset="1" stop-color="#165DFF" stop-opacity="0.81"/>
</linearGradient>
</defs>
</svg>
